<?xml version="1.0" encoding="UTF-8"?>
<svg width="32px" height="32px" viewBox="0 0 32 32" version="1.1" xmlns="http://www.w3.org/2000/svg" xmlns:xlink="http://www.w3.org/1999/xlink">
    <!-- Generator: Sketch 63.1 (92452) - https://sketch.com -->
    <title>bloodglucose</title>
    <desc>Created with Sketch.</desc>
    <g id="Admin-Ver-1.0" stroke="none" stroke-width="1" fill="none" fill-rule="evenodd">
        <g id="bloodglucose">
            <circle id="Oval" fill="#BB82C3" cx="16" cy="16" r="16"></circle>
            <g transform="translate(10.000000, 8.000000)" fill="#FFFFFF" fill-rule="nonzero" id="Shape">
                <path d="M12,10.4598514 C12,8.98500425 11.0864268,6.81464456 9.28459996,4.00922636 C7.98765167,1.98982749 6.71092571,0.386341084 6.65722607,0.319085918 C6.31673182,-0.10734788 5.67947343,-0.106359688 5.34039531,0.322050493 C5.28669567,0.389886949 4.01081939,2.00662675 2.71460749,4.03224542 C0.913347059,6.84702238 0,9.00959279 0,10.4598514 C0,13.8244117 2.69160954,16.5617028 5.99997192,16.5617028 C9.30833429,16.5617028 12,13.8244117 12,10.4598514 Z M7.49954006,11.3630586 L6.8723645,11.3630586 L6.8723645,11.9970127 C6.8723645,12.4785527 6.4919354,12.8689465 6.02268664,12.8689465 C5.55343788,12.8689465 5.17300877,12.4785527 5.17300877,11.9970127 L5.17300877,11.3630586 L4.54583322,11.3630586 C4.07658446,11.3630586 3.69615535,10.9726647 3.69615535,10.4911247 C3.69615535,10.0095847 4.07658446,9.61919083 4.54583322,9.61919083 L5.17300877,9.61919083 L5.17300877,8.98517864 C5.17300877,8.50363862 5.55343788,8.11324476 6.02268664,8.11324476 C6.4919354,8.11324476 6.8723645,8.50363862 6.8723645,8.98517864 L6.8723645,9.61919083 L7.49954006,9.61919083 C7.96878882,9.61919083 8.34921792,10.0095847 8.34921792,10.4911247 C8.34921792,10.9726647 7.96878882,11.3630586 7.49954006,11.3630586 Z"></path>
            </g>
        </g>
    </g>
</svg>