<?xml version="1.0" encoding="UTF-8"?>
<svg width="32px" height="32px" viewBox="0 0 32 32" version="1.1" xmlns="http://www.w3.org/2000/svg" xmlns:xlink="http://www.w3.org/1999/xlink">
    <!-- Generator: Sketch 63.1 (92452) - https://sketch.com -->
    <title>blood_pressure</title>
    <desc>Created with Sketch.</desc>
    <g id="Admin-Ver-1.0" stroke="none" stroke-width="1" fill="none" fill-rule="evenodd">
        <g id="Group-7" transform="translate(-24.000000, -16.000000)">
            <g id="blood_pressure" transform="translate(24.000000, 16.000000)">
                <circle id="Oval" fill="#E05853" cx="16" cy="16" r="16"></circle>
                <g id="standing-frontal-man-silhouette" transform="translate(9.280000, 3.840000)" fill="#FFFFFF" fill-rule="nonzero">
                    <circle id="Oval" cx="6.48391111" cy="2.07786667" r="2.07786667"></circle>
                    <path d="M12.8952889,13.3195852 C12.3093333,6.73611852 9.17191111,5.42293333 9.17191111,5.42293333 C9.17191111,5.42293333 6.13973333,3.60011852 2.94779259,5.92165926 C0.878459259,7.80515556 0.400592593,10.6804148 0.0734814815,13.4575407 C-0.0919703704,14.8688593 2.11531852,14.8517926 2.27934815,13.4575407 C2.47466667,11.8001778 2.75342222,10.1352296 3.57594074,8.71727407 L3.57214815,10.3172741 L3.55697778,18.0062815 L3.55697778,24.1061926 C3.55697778,24.761837 4.03768889,25.2942222 4.71277037,25.2942222 C5.38737778,25.2942222 5.93493333,24.761837 5.93493333,24.1061926 L5.93493333,15.3870222 L7.01487407,15.3870222 C7.01487407,17.4298074 7.01487407,22.0923259 7.01487407,24.134163 C7.01487407,25.5563852 9.22026667,25.5563852 9.22026667,24.134163 C9.22026667,22.0913778 9.22026667,20.0481185 9.22026667,18.0058074 L9.31365926,10.3016296 C9.31460741,9.56634074 9.31555556,8.90927407 9.31555556,8.45226667 C10.1968593,9.8962963 10.4879407,11.6114963 10.6884741,13.318637 C10.8539259,14.713837 13.0607407,14.7309037 12.8952889,13.3195852 Z" id="Path"></path>
                </g>
            </g>
        </g>
    </g>
</svg>