<?xml version="1.0" encoding="UTF-8"?>
<svg width="32px" height="32px" viewBox="0 0 32 32" version="1.1" xmlns="http://www.w3.org/2000/svg" xmlns:xlink="http://www.w3.org/1999/xlink">
    <!-- Generator: Sketch 63.1 (92452) - https://sketch.com -->
    <title>cholesterol</title>
    <desc>Created with Sketch.</desc>
    <g id="Admin-Ver-1.0" stroke="none" stroke-width="1" fill="none" fill-rule="evenodd">
        <g id="cholesterol" fill-rule="nonzero">
            <path d="M15.8037614,5.61600016e-05 C7.08952628,5.61600016e-05 0,7.08958244 0,15.8038176 C0,24.5180527 7.08952628,31.607579 15.8037614,31.607579 C24.5181089,31.607579 31.6076351,24.5180527 31.6076351,15.8038176 C31.6076351,7.08958244 24.5181089,5.61600016e-05 15.8037614,5.61600016e-05 Z" id="Shape" fill="#F0C419"></path>
            <path d="M23.9703804,17.5930191 C25.5032676,17.5930191 26.7458919,18.8356714 26.7458919,20.3685587 C26.7458919,21.9014178 25.5032395,23.1440702 23.9703804,23.1440702 C22.4374931,23.1440702 21.1948408,21.9014459 21.1948408,20.3685587 C21.1948408,18.8356714 22.4374931,17.5930191 23.9703804,17.5930191 Z M15.8037895,17.6061324 C17.3294321,17.6061324 18.5662157,18.8429161 18.5662157,20.3685587 C18.5662157,21.8942013 17.3294321,23.1309849 15.8037895,23.1309849 C14.2781469,23.1309849 13.0413632,21.8942013 13.0413632,20.3685587 C13.0413632,18.842888 14.2781469,17.6061324 15.8037895,17.6061324 Z M7.63719861,17.6136859 C9.15868538,17.6136859 10.3920713,18.8470719 10.3920713,20.3685587 C10.3920713,21.8900173 9.15868538,23.1234033 7.63719861,23.1234033 C6.11573993,23.1234033 4.88235398,21.8900173 4.88235398,20.3685587 C4.88235398,18.8470719 6.11573993,17.6136859 7.63719861,17.6136859 Z M11.72048,12.8803244 C13.198527,12.8803244 14.4098421,14.0189685 14.5271322,15.4668014 C13.3862699,15.7644213 12.4002968,16.4496014 11.72048,17.3741074 C11.0406632,16.4496014 10.0547182,15.7644494 8.91382777,15.4668295 C9.03111793,14.0189685 10.242433,12.8803244 11.72048,12.8803244 Z M19.8870709,12.8803244 C21.3651179,12.8803244 22.576433,14.0189685 22.6937231,15.4668295 C21.5528327,15.7644213 20.5668877,16.4495733 19.8870709,17.3740231 C19.2072541,16.4495453 18.2213091,15.7644213 17.0803906,15.4668295 C17.1977088,14.0189685 18.4089958,12.8803244 19.8870709,12.8803244 Z M15.8037895,8.41195392 C17.218825,8.41195392 18.392569,9.44229339 18.6174056,10.793503 C17.4735387,11.0901121 16.4850103,11.776275 15.8038176,12.7026342 C15.1225967,11.776275 14.1340403,11.090084 12.9901734,10.7934749 C13.21501,9.44229339 14.3887821,8.41195392 15.8037895,8.41195392 Z" id="Combined-Shape" fill="#FFFFFF"></path>
        </g>
    </g>
</svg>