<?xml version="1.0" encoding="UTF-8"?>
<svg width="32px" height="32px" viewBox="0 0 32 32" version="1.1" xmlns="http://www.w3.org/2000/svg" xmlns:xlink="http://www.w3.org/1999/xlink">
    <!-- Generator: Sketch 63.1 (92452) - https://sketch.com -->
    <title>nutritional</title>
    <desc>Created with Sketch.</desc>
    <g id="Admin-Ver-1.0" stroke="none" stroke-width="1" fill="none" fill-rule="evenodd">
        <g id="Dashboard" transform="translate(-286.000000, -538.000000)">
            <g id="nutritional" transform="translate(286.000000, 538.000000)">
                <circle id="Oval" fill="#8DCF56" cx="16" cy="16" r="16"></circle>
                <g id="Nutritional-Status" transform="translate(5.281553, 5.281553)" fill="#FFFFFF" fill-rule="nonzero">
                    <polygon id="Path" points="3.05667691 9.93379179 4.2032164 9.93379179 4.2032164 11.0800048 3.05667691 11.0800048"></polygon>
                    <polygon id="Path" points="3.05667691 13.3724309 4.2032164 13.3724309 4.2032164 14.5184807 3.05667691 14.5184807"></polygon>
                    <polygon id="Path" points="3.05667691 6.49531596 4.2032164 6.49531596 4.2032164 7.64152901 3.05667691 7.64152901"></polygon>
                    <path d="M11.4618038,3.82092772 C11.6728624,3.82092772 11.8439292,3.6498609 11.8439292,3.43896554 L11.8439292,1.91062708 C11.8439292,1.69973172 11.6728624,1.5286649 11.4618038,1.5286649 L9.13134473,1.5286649 C9.03781298,1.52262533 8.94885171,1.48704084 8.87686654,1.42697158 C8.86397122,1.4144027 8.85189206,1.4008545 8.84095552,1.38649011 C8.82300006,1.36526997 8.80732981,1.34209109 8.7944345,1.31744309 C8.78594645,1.29965081 8.77876425,1.28136885 8.77288791,1.26276046 C8.76684835,1.2495387 8.76146171,1.23599046 8.75689123,1.222279 C8.61161499,0.510915212 7.98578466,0 7.25956678,0 C6.53351216,0 5.90768183,0.510915212 5.76240563,1.222279 C5.75799836,1.23435812 5.75293817,1.24627407 5.74706183,1.25770027 C5.73987963,1.28202182 5.73008573,1.30552719 5.71768012,1.3277267 C5.683075,1.39089734 5.63100408,1.44280504 5.56783344,1.47741016 C5.54563393,1.48948929 5.52229178,1.49928319 5.49797023,1.50646538 C5.47511783,1.51332114 5.4514492,1.51805485 5.4276174,1.52066655 C5.4143956,1.52409441 5.4008474,1.52670612 5.38713593,1.5286649 L3.05667691,1.5286649 C2.84561828,1.5286649 2.67455146,1.69973172 2.67455146,1.91062708 L2.67455146,3.43896554 C2.67455146,3.6498609 2.84561828,3.82092772 3.05667691,3.82092772 L11.4618038,3.82092772 Z M5.73106514,2.29275253 L10.6977162,2.29275253 C10.9087748,2.29275253 11.0798416,2.46381936 11.0798416,2.67487794 C11.0798416,2.8857733 10.9087748,3.05684013 10.6977162,3.05684013 L5.73106514,3.05684013 C5.52000652,3.05684013 5.34893969,2.8857733 5.34893969,2.67487794 C5.34893969,2.46381936 5.52000652,2.29275253 5.73106514,2.29275253 Z M3.8207645,2.29275253 L4.20288991,2.29275253 C4.41378527,2.29275253 4.5848521,2.46381936 4.5848521,2.67487794 C4.5848521,2.8857733 4.41378527,3.05684013 4.20288991,3.05684013 L3.8207645,3.05684013 C3.60970588,3.05684013 3.43863905,2.8857733 3.43863905,2.67487794 C3.43863905,2.46381936 3.60970588,2.29275253 3.8207645,2.29275253 Z" id="Shape"></path>
                    <path d="M13.8306222,11.4698021 C13.8405794,11.4698021 13.8474351,11.4778005 13.8569026,11.4804122 C13.9594121,11.4709447 14.0625745,11.4635993 14.167206,11.4635993 L14.9947908,11.4635993 L15.0031156,11.4635993 C15.2030744,11.464089 15.4012377,11.4990206 15.5892806,11.5670882 C15.6274768,11.5812894 15.6628982,11.6015301 15.6999518,11.6180165 C15.6573483,11.3051013 15.5858528,10.9969199 15.4864447,10.6972265 C15.1766309,9.79194345 14.3289687,9.18096717 13.3721044,9.17313205 L13.3655751,9.17313205 C13.1202379,9.1723159 12.8750639,9.18586414 12.6313589,9.21410322 C12.582063,9.74281072 12.5644339,11.2164665 13.8306222,11.4698021 L13.8306222,11.4698021 Z" id="Path"></path>
                    <path d="M14.5183174,8.65356557 L14.5183174,2.67487794 C14.5183174,2.46381936 14.3472506,2.29275253 14.136192,2.29275253 L12.6080168,2.29275253 L12.6080168,3.05684013 L12.9901422,3.05684013 C13.4120962,3.05684013 13.7542299,3.39897378 13.7542299,3.82092772 L13.7542299,8.4438128 C14.0168697,8.48021348 14.2737963,8.55072957 14.5183174,8.65356557 L14.5183174,8.65356557 Z" id="Path"></path>
                    <path d="M1.52850167,20.6313447 C1.10638447,20.6313447 0.764250817,20.2893743 0.764250817,19.8672571 L0.764250817,3.82092772 C0.764250817,3.39897378 1.10638447,3.05684013 1.52850167,3.05684013 L1.91046386,3.05684013 L1.91046386,2.29275253 L0.382288671,2.29275253 C0.171230047,2.29275253 0.000163231704,2.46381936 0.000163231704,2.67487794 L0.000163231704,21.0134702 C0.000163231704,21.2245288 0.171230047,21.3955956 0.382288671,21.3955956 L13.1429271,21.3955956 C12.802589,21.1786606 12.4891841,20.9220604 12.2092417,20.6313447 L1.52850167,20.6313447 Z" id="Path"></path>
                    <path d="M12.7462741,11.7907157 C11.836747,11.0566627 11.7683529,9.66413302 11.9026926,8.87817239 C11.9379507,8.72114347 12.0032434,8.44658773 12.9901422,8.41132968 L12.9901422,3.82092772 L12.5376639,3.82092772 C12.376391,4.27732357 11.9457858,4.58305654 11.4618038,4.58501532 L3.05667691,4.58501532 C2.57269487,4.58305654 2.14208966,4.27732357 1.98081674,3.82092772 L1.52850167,3.82092772 L1.52850167,19.8672571 L11.6031624,19.8672571 C11.0094887,18.9587095 10.694778,17.8962343 10.6977162,16.8109067 L10.6977162,15.1565534 C10.6797607,13.7349685 11.475352,12.427809 12.7462741,11.7907157 Z M6.11302729,6.87744137 L11.4618038,6.87744137 C11.6728624,6.87744137 11.8439292,7.04850819 11.8439292,7.25940356 C11.8439292,7.47046218 11.6728624,7.64152901 11.4618038,7.64152901 L6.11302729,7.64152901 C5.90213197,7.64152901 5.73106514,7.47046218 5.73106514,7.25940356 C5.73106514,7.04850819 5.90213197,6.87744137 6.11302729,6.87744137 Z M4.96697751,17.9569565 C4.96697751,18.3790737 4.62484385,18.7212074 4.20288991,18.7212074 L3.05667691,18.7212074 C2.63472292,18.7212074 2.29258927,18.3790737 2.29258927,17.9569565 L2.29258927,16.8109067 C2.29258927,16.3887895 2.63472292,16.0468191 3.05667691,16.0468191 L4.20288991,16.0468191 C4.62484385,16.0468191 4.96697751,16.3887895 4.96697751,16.8109067 L4.96697751,17.9569565 Z M4.96697751,14.5184807 C4.96697751,14.9405978 4.62484385,15.2825683 4.20288991,15.2825683 L3.05667691,15.2825683 C2.63472292,15.2825683 2.29258927,14.9405978 2.29258927,14.5184807 L2.29258927,13.3724309 C2.29258927,12.9503137 2.63472292,12.60818 3.05667691,12.60818 L4.20288991,12.60818 C4.62484385,12.60818 4.96697751,12.9503137 4.96697751,13.3724309 L4.96697751,14.5184807 Z M4.96697751,11.0800048 C4.96697751,11.5019588 4.62484385,11.8440924 4.20288991,11.8440924 L3.05667691,11.8440924 C2.63472292,11.8440924 2.29258927,11.5019588 2.29258927,11.0800048 L2.29258927,9.93379179 C2.29258927,9.51183785 2.63472292,9.1697042 3.05667691,9.1697042 L4.20288991,9.1697042 C4.62484385,9.1697042 4.96697751,9.51183785 4.96697751,9.93379179 L4.96697751,11.0800048 Z M4.96697751,7.64152901 C4.96697751,8.06348295 4.62484385,8.4056166 4.20288991,8.4056166 L3.05667691,8.4056166 C2.63472292,8.4056166 2.29258927,8.06348295 2.29258927,7.64152901 L2.29258927,6.49531596 C2.29258927,6.07336202 2.63472292,5.73122836 3.05667691,5.73122836 L4.20288991,5.73122836 C4.62484385,5.73122836 4.96697751,6.07336202 4.96697751,6.49531596 L4.96697751,7.64152901 Z M9.55166638,17.9569565 L6.11302729,17.9569565 C5.90213197,17.9569565 5.73106514,17.7860529 5.73106514,17.5749943 C5.73106514,17.3639357 5.90213197,17.1928689 6.11302729,17.1928689 L9.55166638,17.1928689 C9.76256174,17.1928689 9.93362857,17.3639357 9.93362857,17.5749943 C9.93362857,17.7860529 9.76256174,17.9569565 9.55166638,17.9569565 Z M9.55166638,14.5184807 L6.11302729,14.5184807 C5.90213197,14.5184807 5.73106514,14.3474138 5.73106514,14.1365185 C5.73106514,13.9254599 5.90213197,13.7543931 6.11302729,13.7543931 L9.55166638,13.7543931 C9.76256174,13.7543931 9.93362857,13.9254599 9.93362857,14.1365185 C9.93362857,14.3474138 9.76256174,14.5184807 9.55166638,14.5184807 Z M10.315754,11.0800048 L6.11302729,11.0800048 C5.90213197,11.0800048 5.73106514,10.908938 5.73106514,10.6980426 C5.73106514,10.4869841 5.90213197,10.3159172 6.11302729,10.3159172 L10.315754,10.3159172 C10.5266493,10.3159172 10.6977162,10.4869841 10.6977162,10.6980426 C10.6977162,10.908938 10.5266493,11.0800048 10.315754,11.0800048 Z" id="Shape"></path>
                    <path d="M18.6914992,12.2262178 L17.8479177,12.2262178 C17.7441024,12.2275237 17.6411031,12.2444998 17.542348,12.2761668 L17.5239028,12.2815534 C17.0807287,12.4612715 16.7962158,12.8977531 16.8105802,13.3758587 L16.7888704,13.4197681 C16.712478,12.2980398 16.8335959,9.96284706 18.9143104,8.73452849 C19.090111,8.62483679 19.1464259,8.39484329 19.0409782,8.21626782 C18.9356938,8.03769232 18.7071694,7.97582753 18.5261455,8.07670471 C16.3101118,9.38451712 15.9911571,11.7334213 16.0159683,13.1140351 C15.9449625,12.7374595 15.6850977,12.4238914 15.3282731,12.2843283 C15.2254372,12.247438 15.1170513,12.2280134 15.0076861,12.227034 L14.165737,12.227034 C12.6749418,12.2262178 11.4618038,13.5415389 11.4618038,15.1565534 L11.4618038,16.8109067 C11.4618038,19.3385496 13.3698192,21.3955956 15.7144794,21.3955956 L17.1425935,21.3955956 C19.4872537,21.3955956 21.3952691,19.3393658 21.3952691,16.8109067 L21.3952691,15.1565534 C21.3952691,13.5415389 20.1822943,12.2262178 18.6914992,12.2262178 L18.6914992,12.2262178 Z M13.877633,13.7321936 C13.8351928,13.7490064 12.9901422,14.0699199 12.9901422,15.2825683 C12.9901422,15.4936269 12.8190754,15.6646937 12.6080168,15.6646937 C12.3969582,15.6646937 12.2260546,15.4936269 12.2260546,15.2825683 C12.2260546,13.4995884 13.5758176,13.0285017 13.6334383,13.00973 C13.7628811,12.9659839 13.9057089,12.9945495 14.0082183,13.0848166 C14.1107279,13.1749205 14.1574121,13.3128513 14.1306421,13.4467013 C14.1038721,13.5805513 14.0077287,13.6900798 13.8784492,13.7338259 L13.877633,13.7321936 Z M16.0651389,13.6828976 C16.0772483,13.7356214 16.0889671,13.7845909 16.1010764,13.830459 C16.0827171,13.8056478 16.0706077,13.7801837 16.0651389,13.7543931 L16.0651389,13.6828976 Z" id="Shape"></path>
                    <polygon id="Path" points="3.05667691 16.8109067 4.2032164 16.8109067 4.2032164 17.9569565 3.05667691 17.9569565"></polygon>
                </g>
            </g>
        </g>
    </g>
</svg>