<?xml version="1.0" encoding="UTF-8"?>
<svg width="32px" height="32px" viewBox="0 0 32 32" version="1.1" xmlns="http://www.w3.org/2000/svg" xmlns:xlink="http://www.w3.org/1999/xlink">
    <!-- Generator: Sketch 63.1 (92452) - https://sketch.com -->
    <title>physical_activity</title>
    <desc>Created with Sketch.</desc>
    <g id="Admin-Ver-1.0" stroke="none" stroke-width="1" fill="none" fill-rule="evenodd">
        <g id="physical_activity">
            <circle id="Oval" fill="#69AAEA" cx="16" cy="16" r="16"></circle>
            <g id="stretching-exercises" transform="translate(7.680000, 4.480000)" fill="#FFFFFF" fill-rule="nonzero">
                <path d="M15.2092387,0.00505806452 C11.6263226,0.320825806 8.9824,2.1092129 7.44113548,4.69460645 C6.40820645,5.98947097 4.34487742,9.94270968 3.59447742,12.0121806 C2.23385806,14.5856516 1.04738065,17.6475871 0.118864516,20.4078452 C-0.448722581,22.0957935 2.09981935,23.1970065 2.67065806,21.501471 C3.36505806,19.4363355 4.20397419,17.2035613 5.152,15.1315613 C6.0928,17.2371613 7.04877419,19.3358968 8.0752,21.4013935 C8.87076129,23.0048 11.264671,21.5986581 10.472,20.000671 C9.41522581,17.8744774 8.4336,15.7143226 7.46642581,13.5469419 C7.47870968,13.5050323 7.49424516,13.4642065 7.50725161,13.4226581 C7.6683871,13.4685419 7.84614194,13.4826323 8.04196129,13.4454194 C9.52180645,13.1675871 11.0016516,12.8904774 12.4825806,12.6126452 C13.1152,12.4937806 13.3576258,11.8015484 13.2579097,11.247329 C12.9587613,9.58647742 12.0125419,8.43107097 10.8347355,7.33780645 C10.659871,6.74312258 10.0767484,6.21708387 9.42967742,5.69429677 C10.7415226,3.57352258 12.8832516,2.42245161 15.6709677,2.17677419 C17.093729,2.05212903 16.6197161,-0.118864516 15.2092387,0.00505806452 Z M9.81734194,9.4452129 C10.183329,9.8260129 10.4947613,10.2266839 10.7299613,10.6905806 C10.0138839,10.8249806 9.29744516,10.9590194 8.58136774,11.0934194 C8.94265806,10.5117419 9.35850323,9.96258065 9.81734194,9.4452129 Z" id="Shape"></path>
                <circle id="Oval" cx="12.8810839" cy="5.64877419" r="1.90580645"></circle>
            </g>
        </g>
    </g>
</svg>