<?xml version="1.0" encoding="UTF-8"?>
<svg width="16px" height="16px" viewBox="0 0 16 16" version="1.1" xmlns="http://www.w3.org/2000/svg" xmlns:xlink="http://www.w3.org/1999/xlink">
    <!-- Generator: Sketch 55.2 (78181) - https://sketchapp.com -->
    <title>Checkbox/Checked/Default</title>
    <desc>Created with Sketch.</desc>
    <defs>
        <rect id="path-1" x="0" y="0" width="16" height="16" rx="4"></rect>
        <filter x="-6.2%" y="-6.2%" width="112.5%" height="112.5%" filterUnits="objectBoundingBox" id="filter-2">
            <feOffset dx="0" dy="2" in="SourceAlpha" result="shadowOffsetInner1"></feOffset>
            <feComposite in="shadowOffsetInner1" in2="SourceAlpha" operator="arithmetic" k2="-1" k3="1" result="shadowInnerInner1"></feComposite>
            <feColorMatrix values="0 0 0 0 1   0 0 0 0 1   0 0 0 0 1  0 0 0 0.06 0" type="matrix" in="shadowInnerInner1"></feColorMatrix>
        </filter>
    </defs>
    <g id="Checkbox/Checked/Default" stroke="none" stroke-width="1" fill="none" fill-rule="evenodd">
        <g id="Checkbox/Checked">
            <g id="Atoms/Button/Base/Green">
                <g id="Base">
                    <use fill="#68B983" fill-rule="evenodd" xlink:href="#path-1"></use>
                    <use fill="black" fill-opacity="1" filter="url(#filter-2)" xlink:href="#path-1"></use>
                    <rect stroke="#2D9C3C" stroke-width="1" stroke-linejoin="square" x="0.5" y="0.5" width="15" height="15" rx="4"></rect>
                </g>
            </g>
            <path d="M6.65183265,10.8942434 L4.10636422,8.33133321 C3.96454526,8.1903244 3.96454526,7.96081005 4.10636422,7.81830114 L4.62054884,7.30601913 C4.76236779,7.16501031 4.99291451,7.16501031 5.13473346,7.30601913 L6.9092886,9.10013126 L10.8649465,5.10613163 C11.0067655,4.96512282 11.2373122,4.96512282 11.3791312,5.10613163 L11.8933158,5.6191637 C12.0351347,5.76017251 12.0351347,5.9904369 11.8933158,6.13069567 L7.16601727,10.8942434 C7.02419831,11.0352522 6.7936516,11.0352522 6.65183265,10.8942434" id="Check" fill="#FFFFFF"></path>
        </g>
    </g>
</svg>