<?xml version="1.0" encoding="UTF-8"?>
<svg width="15px" height="15px" viewBox="0 0 15 15" version="1.1" xmlns="http://www.w3.org/2000/svg" xmlns:xlink="http://www.w3.org/1999/xlink">
    <title>diamond</title>
    <g id="diamond" stroke="none" stroke-width="1" fill="none" fill-rule="evenodd">
        <g fill-rule="nonzero" id="Path">
            <polygon fill="#00E8F2" points="14.5333419 5.96094101 7.26667094 14.5333419 7.22320575 14.4822259 0 5.96094101 3.22141404 2.78997762 11.3119278 2.78997762"></polygon>
            <polygon fill="#00CEF5" points="14.5333419 5.96094101 7.26667094 14.5333419 7.26667094 2.78997762 11.3119278 2.78997762"></polygon>
            <polygon fill="#9CFDFF" points="9.70072185 5.95384465 4.83262003 5.95384465 7.22320575 2.84652674 7.26667094 2.78997762"></polygon>
            <polygon fill="#00F8FE" points="11.3118169 2.78997762 9.66524006 5.95384465 14.5333419 5.95384465"></polygon>
            <polygon fill="#9CFDFF" points="3.22152494 2.78997762 4.86810182 5.95384465 -1.80300219e-13 5.95384465"></polygon>
            <polygon fill="#9CFDFF" points="6.84088944 1.04360964e-14 7.69245244 1.04360964e-14 7.69245244 1.76444297 6.84088944 1.76444297"></polygon>
            <polygon fill="#00F8FE" points="8.99385803 1.80258589 9.68431152 0.148469129 10.4701223 0.476564801 9.77966884 2.13057072"></polygon>
            <polygon fill="#9CFDFF" points="4.0629978 0.476343054 4.84880858 0.148247354 5.53926208 1.80236415 4.7534513 2.13034894"></polygon>
            <polygon fill="#00F8FE" points="9.66524006 5.95384465 7.26667094 14.5333419 7.22320575 14.378109 4.86810182 5.95384465"></polygon>
            <polygon fill="#00F8FE" points="7.26667094 1.04360964e-14 7.69245244 1.04360964e-14 7.69245244 1.76444297 7.26667094 1.76444297"></polygon>
            <polygon fill="#9CFDFF" points="9.70072185 5.95384465 9.66524006 5.95384465 7.26667094 14.5333419 7.26667094 2.78997762"></polygon>
            <polygon fill="#00F8FE" points="9.70072185 5.95384465 7.26667094 5.95384465 7.26667094 2.78997762"></polygon>
        </g>
    </g>
</svg>