<?xml version="1.0" encoding="UTF-8"?>
<svg width="26px" height="33px" viewBox="0 0 26 33" version="1.1" xmlns="http://www.w3.org/2000/svg" xmlns:xlink="http://www.w3.org/1999/xlink">
    <title>rank1</title>
    <g id="rank1" stroke="none" stroke-width="1" fill="none" fill-rule="evenodd">
        <g fill-rule="nonzero" id="Group">
            <g transform="translate(2.120792, 16.155445)">
                <path d="M4.32622864,12.2589889 L8.77658599,1.51518116 L5.20273952,0.03480594 L0.0752881175,12.413183 C-0.14072079,12.9347107 0.347997024,13.4721443 0.887613846,13.3065978 L3.79503261,12.4143681 C3.88129894,12.3879206 3.96432171,12.379874 4.04977716,12.3881701 L4.32622864,12.2589889 Z" id="Path" fill="#FFE07D"></path>
                <path d="M8.58627609,1.4363376 L4.04977716,12.3881701 C4.26934151,12.4077562 4.47193953,12.5351909 4.5804118,12.7397226 L6.00533455,15.4265166 C6.26980979,15.9252146 6.99543255,15.8907205 7.21150384,15.3692552 L12.3389552,2.99081579 L8.58627609,1.4363376 Z" id="Path" fill="#FFD064"></path>
                <path d="M12.4720037,1.39498215 L8.61952263,2.99081579 L13.746974,15.3692552 C13.9629829,15.8907829 14.6886057,15.9252146 14.9531433,15.4265166 L16.3780661,12.7397226 C16.4219166,12.6570117 16.4812364,12.586776 16.5507859,12.5311988 L16.8996561,12.0902612 L12.4720037,1.39498215 Z" id="Path" fill="#FFE07D"></path>
                <path d="M20.8831274,12.413183 L15.755676,0.0347435638 L12.0161582,1.58373265 L16.5510354,12.5315107 C16.7191393,12.3972146 16.9469997,12.3479374 17.1633829,12.4143057 L20.0708016,13.3065354 C20.6104808,13.4722067 21.0991987,12.9347107 20.8831274,12.413183 L20.8831274,12.413183 Z" id="Path" fill="#FFD064"></path>
            </g>
            <g>
                <path d="M13.8875077,0.448734646 C14.4237562,0.874202955 15.1355938,1.00725147 15.7893591,0.804279194 C16.7086601,0.518783159 17.7034363,0.904205925 18.19047,1.73449601 C18.5368452,2.32494947 19.1524987,2.70619302 19.8354561,2.75303758 C20.7958006,2.81890688 21.5841739,3.53766826 21.7384303,4.48784547 C21.8480877,5.16356724 22.2845343,5.74142069 22.9044293,6.03184445 C23.7761372,6.44022167 24.2516313,7.39520185 24.0522144,8.3368959 C23.9103709,9.00656717 24.1085402,9.70312261 24.5816639,10.1978285 C25.2469689,10.8935107 25.3453986,11.955778 24.819255,12.7618661 C24.44506,13.3351037 24.378255,14.056173 24.6407342,14.6884186 C25.0098144,15.5774671 24.7178313,16.6035562 23.9360699,17.1651294 C23.3801105,17.5644621 23.0573135,18.2127383 23.073656,18.897068 C23.0966729,19.8594086 22.453761,20.7107194 21.52186,20.9519907 C20.8591749,21.1235254 20.3239868,21.6114323 20.0920096,22.2554669 C19.7658442,23.1611075 18.858769,23.7227432 17.902666,23.6110273 C17.2227651,23.5316224 16.5474799,23.7931659 16.0984958,24.3099531 C15.4671859,25.0366362 14.4185166,25.2326223 13.5673305,24.7831392 C12.9620315,24.463461 12.2378434,24.463461 11.6325444,24.7831392 C10.7813582,25.2326847 9.73268894,25.0366362 9.10137905,24.3099531 C8.6523949,23.7931659 7.97717214,23.5316224 7.29720879,23.6110273 C6.34110583,23.7227432 5.43409298,23.1611075 5.10786526,22.2554669 C4.87588804,21.6114323 4.3407623,21.1235254 3.67801479,20.9519907 C2.74611381,20.7107818 2.10320194,19.8594086 2.12621878,18.897068 C2.14256135,18.2127383 1.81976433,17.5644621 1.26380493,17.1651294 C0.48198118,16.6035562 0.190060393,15.5774671 0.559140585,14.6884186 C0.821619788,14.056173 0.754814839,13.3351037 0.380619795,12.7618661 C-0.14552376,11.955778 -0.0470940586,10.8935107 0.618210881,10.1978285 C1.09133463,9.70312261 1.28950394,9.00656717 1.14772275,8.3368959 C0.948305924,7.39520185 1.42379998,6.4401593 2.29550788,6.03184445 C2.91540292,5.74142069 3.35178707,5.16356724 3.46150687,4.48784547 C3.61570093,3.53766826 4.40413656,2.81896926 5.3644811,2.75303758 C6.04743851,2.70619302 6.66309197,2.32494947 7.00946721,1.73449601 C7.49650086,0.904205925 8.49133946,0.518845536 9.41057806,0.804279194 C10.0643434,1.00731384 10.776181,0.874202955 11.3124295,0.448734646 C12.0665582,-0.149578215 13.1334414,-0.149578215 13.8875077,0.448734646 Z" id="Path" fill="#E8AE4D"></path>
                <g transform="translate(3.430693, 3.368317)" id="Path">
                    <path d="M14.8209681,9.14310876 C14.8209681,4.91992566 12.0964988,1.33329206 8.30938798,0.044287128 C3.66541479,0.47767722 0.0305019797,4.38586032 0.0305019797,9.14310876 C0.0305019797,13.9003572 3.66541479,17.8085403 8.30938798,18.2419304 C12.0965612,16.9529255 14.8209681,13.3663542 14.8209681,9.14310876 Z" fill="#FFE07D"></path>
                    <path d="M9.16930677,0.00436633656 C8.46969491,0.00436633656 7.7885464,0.0832722758 7.13397018,0.232164352 C11.2013998,1.15732869 14.237376,4.79554744 14.237376,9.14310876 C14.237376,13.4906701 11.2013998,17.1288888 7.13397018,18.0540532 C7.7885464,18.2029452 8.46969491,18.2818512 9.16930677,18.2818512 C14.21648,18.2818512 18.3080492,14.1902819 18.3080492,9.14310876 C18.3080492,4.09593557 14.21648,0.00436633656 9.16930677,0.00436633656 Z" fill="#FFD064"></path>
                    <path d="M9.42105727,12.6507117 L12.5752364,14.773874 C12.6992404,14.8573334 12.836281,14.8696215 12.9562305,14.8326948 C13.0676968,14.6811829 13.1748592,14.5263027 13.2775305,14.3682413 C13.2750978,14.3381136 13.2695463,14.3072998 13.2606265,14.2759869 L12.216074,10.6201157 C12.1656741,10.4436533 12.227177,10.254279 12.3717028,10.1411909 L14.7805483,8.25549491 C14.7405651,7.81886125 14.6713275,7.39064839 14.5748938,6.97285236 L11.3041335,6.85552266 C11.1207473,6.84897315 10.9596295,6.73189295 10.8967543,6.55954741 L9.59284142,2.98782173 C9.44862756,2.59279303 8.88992361,2.59279303 8.74570975,2.98782173 L7.44185928,6.55942266 C7.37892166,6.7317682 7.21786621,6.8488484 7.03448008,6.8553979 L3.23476925,6.99168998 C2.81447817,7.00678503 2.64188312,7.53810581 2.97297619,7.79734145 L5.96691079,10.1410662 C6.11137415,10.2541543 6.1729395,10.4435285 6.1225395,10.6199909 L5.07798704,14.2758621 C4.96246625,14.6802473 5.41444446,15.0085958 5.76331475,14.7738116 L8.91749391,12.6506493 C9.0697543,12.5482899 9.26885925,12.5482899 9.42105727,12.6507117 Z" fill="#E8AE4D"></path>
                    <g transform="translate(12.350495, 6.923762)" fill="#E5A32E">
                        <path d="M0.22474158,7.85011175 C0.573611871,8.08495828 1.02559008,7.75654739 0.910069291,7.35216225 L0.720695037,6.68928999 C0.517410882,7.05100978 0.289987124,7.39732265 0.0410435637,7.72648205 L0.22474158,7.85011175 Z"></path>
                        <path d="M2.75334946,0.0679900979 L1.62209403,0.0273831679 C1.76019502,0.588270287 1.84627423,1.16949206 1.8754663,1.76580888 L3.01514252,0.873641569 C3.34623559,0.614468306 3.17357816,0.0830851471 2.75334946,0.0679900979 Z"></path>
                    </g>
                </g>
            </g>
        </g>
    </g>
</svg>