<?xml version="1.0" encoding="UTF-8"?>
<svg width="24px" height="24px" viewBox="0 0 24 24" version="1.1" xmlns="http://www.w3.org/2000/svg" xmlns:xlink="http://www.w3.org/1999/xlink">
    <!-- Generator: Sketch 55.2 (78181) - https://sketchapp.com -->
    <title>Icon / Analytics - On</title>
    <desc>Created with Sketch.</desc>
    <g id="Icon-/-Analytics---On" stroke="none" stroke-width="1" fill="none" fill-rule="evenodd">
        <g id="Group" fill="#D8D8D8" fill-opacity="0">
            <rect id="Rectangle-6" x="0" y="0" width="24" height="24"></rect>
        </g>
        <g id="analytics" transform="translate(4.000000, 6.000000)" fill="#FFFFFF" fill-rule="nonzero">
            <path d="M14.6526316,0 L1.34736842,0 C0.602105263,0 0,0.602105263 0,1.34736842 L0,9.97894737 C0,10.7242105 0.602105263,11.3263158 1.34736842,11.3263158 L14.6526316,11.3263158 C15.3978947,11.3263158 16,10.7242105 16,9.97894737 L16,1.34736842 C16,0.602105263 15.3978947,0 14.6526316,0 Z M10.2905263,2.98947368 L12.2736842,2.98947368 C12.4589474,2.98947368 12.6105263,3.14105263 12.6105263,3.32631579 C12.6105263,3.51157895 12.4589474,3.66315789 12.2736842,3.66315789 L10.2905263,3.66315789 C10.1052632,3.66315789 9.95368421,3.51157895 9.95368421,3.32631579 C9.95368421,3.14105263 10.1010526,2.98947368 10.2905263,2.98947368 Z M3.36842105,9.13684211 C3.36842105,9.32210526 3.21684211,9.47368421 3.03157895,9.47368421 L1.76842105,9.47368421 C1.58315789,9.47368421 1.43157895,9.32210526 1.43157895,9.13684211 L1.43157895,6.98947368 C1.43157895,6.80421053 1.58315789,6.65263158 1.76842105,6.65263158 L3.03157895,6.65263158 C3.21684211,6.65263158 3.36842105,6.80421053 3.36842105,6.98947368 L3.36842105,9.13684211 Z M5.93684211,9.13684211 C5.93684211,9.32210526 5.78526316,9.47368421 5.6,9.47368421 L4.33684211,9.47368421 C4.15157895,9.47368421 4,9.32210526 4,9.13684211 L4,6.14736842 C4,5.96210526 4.15157895,5.81052632 4.33684211,5.81052632 L5.6,5.81052632 C5.78526316,5.81052632 5.93684211,5.96210526 5.93684211,6.14736842 L5.93684211,9.13684211 Z M8.50526316,9.13684211 C8.50526316,9.32210526 8.35368421,9.47368421 8.16842105,9.47368421 L6.90526316,9.47368421 C6.72,9.47368421 6.56842105,9.32210526 6.56842105,9.13684211 L6.56842105,5.51578947 C6.56842105,5.33052632 6.72,5.17894737 6.90526316,5.17894737 L8.16842105,5.17894737 C8.35368421,5.17894737 8.50526316,5.33052632 8.50526316,5.51578947 L8.50526316,9.13684211 Z M9.02736842,2.03368421 L8.88421053,3.90315789 C8.87157895,4.08 8.72421053,4.21473684 8.54736842,4.21473684 C8.53894737,4.21473684 8.53052632,4.21473684 8.52210526,4.21473684 C8.33684211,4.20210526 8.19789474,4.03789474 8.21052632,3.85263158 L8.29473684,2.74105263 L5.65473684,4.79157895 C5.53263158,4.88842105 5.36,4.88421053 5.23789474,4.79157895 L3.33052632,3.28421053 L1.47789474,5.06105263 C1.34315789,5.19157895 1.12842105,5.18736842 1.00210526,5.05263158 C0.871578947,4.91789474 0.875789474,4.70315789 1.01052632,4.57684211 L3.07368421,2.59789474 C3.19578947,2.48 3.38526316,2.47157895 3.51578947,2.57684211 L5.45684211,4.10526316 L7.79789474,2.28631579 L6.65684211,2.20631579 C6.47157895,2.19368421 6.33263158,2.03368421 6.34105263,1.84842105 C6.35368421,1.66315789 6.51368421,1.52421053 6.69894737,1.53263158 L6.70315789,1.53263158 L8.72,1.67578947 C8.90105263,1.68842105 9.04421053,1.84842105 9.02736842,2.03368421 Z M14.4210526,8.58947368 L10.2905263,8.58947368 C10.1052632,8.58947368 9.95368421,8.43789474 9.95368421,8.25263158 C9.95368421,8.06736842 10.1052632,7.91578947 10.2905263,7.91578947 L14.4210526,7.91578947 C14.6063158,7.91578947 14.7578947,8.06736842 14.7578947,8.25263158 C14.7578947,8.43789474 14.6063158,8.58947368 14.4210526,8.58947368 Z M14.4210526,6.10526316 L10.2905263,6.10526316 C10.1052632,6.10526316 9.95368421,5.95368421 9.95368421,5.76842105 C9.95368421,5.58315789 10.1010526,5.43157895 10.2905263,5.43157895 L14.4210526,5.43157895 C14.6063158,5.43157895 14.7578947,5.58315789 14.7578947,5.76842105 C14.7578947,5.95368421 14.6063158,6.10526316 14.4210526,6.10526316 Z" id="Shape"></path>
        </g>
    </g>
</svg>