<?xml version="1.0" encoding="UTF-8"?>
<svg width="24px" height="24px" viewBox="0 0 24 24" version="1.1" xmlns="http://www.w3.org/2000/svg" xmlns:xlink="http://www.w3.org/1999/xlink">
    <!-- Generator: Sketch 55.2 (78181) - https://sketchapp.com -->
    <title>Icon / Broadcast-On</title>
    <desc>Created with Sketch.</desc>
    <g id="Icon-/-Broadcast-On" stroke="none" stroke-width="1" fill="none" fill-rule="evenodd">
        <g id="Group" fill="#D8D8D8" fill-opacity="0">
            <rect id="Rectangle-6" x="0" y="0" width="24" height="24"></rect>
        </g>
        <g id="horn" transform="translate(4.000000, 5.000000)" fill="#FFFFFF" fill-rule="nonzero">
            <polygon id="Path" points="6.1306875 3.73696875 6.1306875 3.36053125 1.2674375 3.36053125 1.2674375 4.20546875 0 4.20546875 0 7.71190625 1.2674375 7.71190625 1.2674375 8.55678125 2.3261875 8.55678125 2.3261875 8.55684375 5.2789375 8.55684375 5.2789375 8.55678125 6.1306875 8.55678125 6.1306875 8.18034375 6.13075 8.180375 6.13075 3.7369375"></polygon>
            <polygon id="Path" points="5.48590625 9.50740625 2.5331875 9.50740625 3.27678125 12.9225625 6.22953125 12.9225625"></polygon>
            <path d="M8.1883125,3.07703125 C7.78271875,3.23178125 7.4105,3.3593125 7.08128125,3.4636875 L7.08128125,8.45365625 C7.41046875,8.558 7.78271875,8.6855625 8.1883125,8.84028125 C9.57178125,9.36809375 11.6266562,10.3247812 13.639875,11.9024063 L13.639875,0.0149375 C11.6266562,1.59259375 9.57178125,2.54925 8.1883125,3.07703125 Z" id="Path"></path>
            <path d="M14.8423437,3.74075 L14.590375,3.74075 L14.590375,8.17659375 L14.8423437,8.17659375 C15.4806562,8.17659375 16,7.65728125 16,7.0189375 L16,4.898375 C16,4.2600625 15.4806562,3.74075 14.8423437,3.74075 Z" id="Path"></path>
        </g>
    </g>
</svg>