<?xml version="1.0" encoding="UTF-8"?>
<svg width="24px" height="24px" viewBox="0 0 24 24" version="1.1" xmlns="http://www.w3.org/2000/svg" xmlns:xlink="http://www.w3.org/1999/xlink">
    <!-- Generator: Sketch 55.2 (78181) - https://sketchapp.com -->
    <title>@1xIcon / Challenge-Off</title>
    <desc>Created with Sketch.</desc>
    <g id="Icon-/-Challenge-Off" stroke="none" stroke-width="1" fill="none" fill-rule="evenodd">
        <g id="Group">
            <rect id="Rectangle-6" fill-opacity="0" fill="#D8D8D8" x="0" y="0" width="24" height="24"></rect>
            <path d="M17.7501703,5.86237083 C17.696037,5.84077083 16.400837,5.3298375 14.8661703,5.3298375 C13.950437,5.3298375 13.140837,5.5130375 12.4597703,5.87437083 C11.8563036,6.1946375 11.037637,6.35677083 10.026437,6.35677083 C8.61097031,6.35677083 7.21523698,6.03357083 6.71790365,5.90530417 L6.71790365,5.29010417 C6.71790365,5.1426375 6.59870365,5.0234375 6.45123698,5.0234375 C6.30377031,5.0234375 6.18457031,5.1426375 6.18457031,5.29010417 L6.18457031,6.09010417 C6.18457031,6.0938375 6.18643698,6.0970375 6.18670365,6.10077083 C6.18670365,6.10397083 6.18457031,6.1066375 6.18457031,6.1098375 L6.18457031,13.8234375 L6.18457031,14.1098375 L6.18457031,20.7567708 C6.18457031,20.9042375 6.30377031,21.0234375 6.45123698,21.0234375 C6.59870365,21.0234375 6.71790365,20.9042375 6.71790365,20.7567708 L6.71790365,14.4562375 C7.32403698,14.6066375 8.64937031,14.8901042 10.026437,14.8901042 C11.125637,14.8901042 12.0283036,14.7066375 12.709637,14.3455708 C13.3131036,14.0253042 14.038437,13.8629042 14.8661703,13.8629042 C16.2947036,13.8629042 17.540037,14.3525042 17.5523036,14.3573042 C17.6347036,14.3903708 17.7275036,14.3802375 17.800837,14.3301042 C17.8739036,14.2810375 17.9179036,14.1983708 17.9179036,14.1098375 L17.9179036,6.1098375 C17.9179036,6.00077083 17.8515036,5.90290417 17.7501703,5.86237083 Z" id="Path" fill="#353957" fill-rule="nonzero" transform="translate(12.051237, 13.023438) rotate(20.000000) translate(-12.051237, -13.023438) "></path>
        </g>
    </g>
</svg>