<?xml version="1.0" encoding="UTF-8"?>
<svg width="24px" height="24px" viewBox="0 0 24 24" version="1.1" xmlns="http://www.w3.org/2000/svg" xmlns:xlink="http://www.w3.org/1999/xlink">
    <!-- Generator: Sketch 55.2 (78181) - https://sketchapp.com -->
    <title>Icon / Coin - On</title>
    <desc>Created with Sketch.</desc>
    <g id="Icon-/-Coin---On" stroke="none" stroke-width="1" fill="none" fill-rule="evenodd">
        <g id="Group" fill="#D8D8D8" fill-opacity="0">
            <rect id="Rectangle-6" x="0" y="0" width="24" height="24"></rect>
        </g>
        <g id="coins" transform="translate(4.000000, 6.000000)" fill="#FFFFFF" fill-rule="nonzero">
            <ellipse id="Oval" cx="8" cy="2.67290625" rx="8" ry="2.66665625"></ellipse>
            <ellipse id="Oval" cx="8" cy="2.67290625" rx="8" ry="2.66665625"></ellipse>
            <path d="M14.1628125,6.0764375 C12.4929375,6.63303125 10.3043125,6.93959375 8,6.93959375 C5.6956875,6.93959375 3.50703125,6.63303125 1.8371875,6.0764375 C1.073,5.82171875 0.47146875,5.53221875 0,5.225125 L0,6.35290625 C0,7.0651875 0.83209375,7.734875 2.34315625,8.2385 C3.854125,8.7421875 5.86309375,9.01959375 8,9.01959375 C10.1369062,9.01959375 12.145875,8.74221875 13.6568438,8.23853125 C15.1678437,7.734875 16,7.0651875 16,6.35290625 L16,5.225125 C15.5285313,5.53221875 14.927,5.82165625 14.1628125,6.0764375 Z" id="Path"></path>
            <path d="M14.1628125,9.7564375 C12.493,10.3130312 10.3043125,10.6195937 8,10.6195937 C5.6956875,10.6195937 3.507,10.3130312 1.8371875,9.75640625 C1.07296875,9.5016875 0.4714375,9.21225 -8.8817842e-16,8.90515625 L-8.8817842e-16,10.139625 C-8.8817842e-16,11.6123438 3.58171875,12.80625 8,12.80625 C12.4182812,12.80625 16,11.6123438 16,10.1395937 L16,8.90515625 C15.5285938,9.21221875 14.9270313,9.50171875 14.1628125,9.7564375 Z" id="Path"></path>
        </g>
    </g>
</svg>