<?xml version="1.0" encoding="UTF-8"?>
<svg width="24px" height="24px" viewBox="0 0 24 24" version="1.1" xmlns="http://www.w3.org/2000/svg" xmlns:xlink="http://www.w3.org/1999/xlink">
    <!-- Generator: Sketch 55.2 (78181) - https://sketchapp.com -->
    <title>@1xIcon / Dashboard-Off</title>
    <desc>Created with Sketch.</desc>
    <g id="Icon-/-Dashboard-Off" stroke="none" stroke-width="1" fill="none" fill-rule="evenodd">
        <g id="Group">
            <rect id="Rectangle-6" fill-opacity="0" fill="#D8D8D8" x="0" y="0" width="24" height="24"></rect>
            <path d="M14.56,6.43265625 C9.04,4.67265625 4,8.75265625 4,14.0326562 C4,14.7526562 4.08,16.1126562 4.32,16.9126562 C4.32,17.0726562 4.48,17.2326562 4.64,17.2326562 L19.28,17.2326562 C19.44,17.2326562 19.6,17.0726562 19.68,16.9126562 C19.84,16.1126562 20,14.7526562 20,14.0326562 C20,10.5926562 17.84,7.47265625 14.56,6.43265625 Z M12,7.63265625 C12.48,7.63265625 12.8,7.95265625 12.8,8.43265625 C12.8,8.91265625 12.48,9.23265625 12,9.23265625 C11.52,9.23265625 11.2,8.91265625 11.2,8.43265625 C11.2,7.95265625 11.52,7.63265625 12,7.63265625 Z M6.4,14.8326562 C5.92,14.8326562 5.6,14.5126562 5.6,14.0326562 C5.6,13.5526562 5.92,13.2326562 6.4,13.2326562 C6.88,13.2326562 7.2,13.5526562 7.2,14.0326562 C7.2,14.5126562 6.88,14.8326562 6.4,14.8326562 Z M8.64,10.6726562 C8.32,10.9926562 7.84,10.9926562 7.52,10.6726562 C7.2,10.3526562 7.2,9.79265625 7.44,9.47265625 C7.76,9.15265625 8.24,9.15265625 8.56,9.47265625 C8.88,9.79265625 8.88,10.3526562 8.64,10.6726562 Z M12,15.6326562 C11.12,15.6326562 10.32,14.8326562 10.56,14.0326562 C10.8,13.2326562 12,10.8326562 12,10.8326562 C12,10.8326562 13.2,13.2326562 13.44,14.0326562 C13.68,14.8326562 12.88,15.6326562 12,15.6326562 Z M16.56,10.6726562 C16.24,10.9926562 15.76,10.9926562 15.44,10.6726562 C15.12,10.3526562 15.12,9.87265625 15.44,9.55265625 C15.76,9.23265625 16.24,9.23265625 16.56,9.55265625 C16.8,9.79265625 16.8,10.3526562 16.56,10.6726562 Z M17.6,14.8326562 C17.12,14.8326562 16.8,14.5126562 16.8,14.0326562 C16.8,13.5526562 17.12,13.2326562 17.6,13.2326562 C18.08,13.2326562 18.4,13.5526562 18.4,14.0326562 C18.4,14.5126562 18.08,14.8326562 17.6,14.8326562 Z" id="Shape" fill="#353957" fill-rule="nonzero"></path>
        </g>
    </g>
</svg>