<?xml version="1.0" encoding="UTF-8"?>
<svg width="24px" height="24px" viewBox="0 0 24 24" version="1.1" xmlns="http://www.w3.org/2000/svg" xmlns:xlink="http://www.w3.org/1999/xlink">
    <!-- Generator: Sketch 55.2 (78181) - https://sketchapp.com -->
    <title>Icon / dropdown-white</title>
    <desc>Created with Sketch.</desc>
    <g id="Icon-/-dropdown-white" stroke="none" stroke-width="1" fill="none" fill-rule="evenodd">
        <g id="Group" transform="translate(12.000000, 12.000000) scale(-1, -1) translate(-12.000000, -12.000000) ">
            <rect id="Rectangle-6" fill-opacity="0" fill="#D8D8D8" x="0" y="0" width="24" height="24"></rect>
            <path d="M11.9101469,14.4413933 L8.19140579,10.7226521 C8.06380179,10.5950481 8,10.4401009 8,10.2578095 C8,10.0755181 8.06380179,9.92057086 8.19140579,9.79296686 L8.82031054,9.19140579 C8.94791455,9.06380179 9.10286181,9 9.28515319,9 C9.46744456,9 9.62239183,9.06380179 9.74999583,9.19140579 L12.3749896,11.8163995 L14.9999833,9.19140579 C15.1275873,9.06380179 15.2825346,9 15.464826,9 C15.6471173,9 15.8020646,9.06380179 15.9296686,9.19140579 L16.5585733,9.79296686 C16.6861773,9.92057086 16.7499791,10.0755181 16.7499791,10.2578095 C16.7499791,10.4401009 16.6861773,10.5950481 16.5585733,10.7226521 L12.8398322,14.4413933 C12.7122282,14.5689973 12.5572809,14.6327991 12.3749896,14.6327991 C12.1926982,14.6327991 12.0377509,14.5689973 11.9101469,14.4413933 Z" id="angle-down" fill="#FFFFFF"></path>
        </g>
    </g>
</svg>