<?xml version="1.0" encoding="UTF-8"?>
<svg width="24px" height="24px" viewBox="0 0 24 24" version="1.1" xmlns="http://www.w3.org/2000/svg" xmlns:xlink="http://www.w3.org/1999/xlink">
    <!-- Generator: Sketch 55.2 (78181) - https://sketchapp.com -->
    <title>Icon / Employee-Off</title>
    <desc>Created with Sketch.</desc>
    <g id="Icon-/-Employee-Off" stroke="none" stroke-width="1" fill="none" fill-rule="evenodd">
        <g id="Group">
            <rect id="Rectangle-6" fill-opacity="0" fill="#D8D8D8" x="0" y="0" width="24" height="24"></rect>
            <g id="work" transform="translate(4.000000, 5.000000)" fill="#353957" fill-rule="nonzero">
                <polygon id="Path" points="6.59375 7.5 9.40625 7.5 9.40625 8.4375 6.59375 8.4375"></polygon>
                <path d="M12.9805908,8.4375 L10.34375,8.4375 L10.34375,8.90625 C10.34375,9.16528319 10.1340332,9.375 9.875,9.375 L6.125,9.375 C5.86596681,9.375 5.65625,9.16528319 5.65625,8.90625 L5.65625,8.4375 L3.01940919,8.4375 C2.41333006,8.4375 1.87731934,8.05114747 1.68542481,7.47619628 L0,2.41906737 L0,12.65625 C0,13.4316406 0.630859375,14.0625 1.40625,14.0625 L14.59375,14.0625 C15.3691406,14.0625 16,13.4316406 16,12.65625 L16,2.41943359 L14.3144531,7.47619628 C14.1226807,8.05114747 13.5866699,8.4375 12.9805908,8.4375 Z" id="Path"></path>
                <path d="M9.875,0 L6.125,0 C5.34960938,0 4.71875,0.630859375 4.71875,1.40625 L4.71875,1.875 L0.806518563,1.875 L2.57446288,7.17956544 C2.63854981,7.37133788 2.81750488,7.5 3.01940919,7.5 L5.65625,7.5 L5.65625,7.03125 C5.65625,6.77221681 5.86596681,6.5625 6.125,6.5625 L9.875,6.5625 C10.1340332,6.5625 10.34375,6.77221681 10.34375,7.03125 L10.34375,7.5 L12.9805908,7.5 C13.1824951,7.5 13.3614502,7.37133788 13.4255371,7.17956544 L15.1936035,1.875 L11.28125,1.875 L11.28125,1.40625 C11.28125,0.630859375 10.6503906,0 9.875,0 Z M5.65625,1.875 L5.65625,1.40625 C5.65625,1.147583 5.866333,0.9375 6.125,0.9375 L9.875,0.9375 C10.133667,0.9375 10.34375,1.147583 10.34375,1.40625 L10.34375,1.875 L5.65625,1.875 Z" id="Shape"></path>
            </g>
        </g>
    </g>
</svg>