<?xml version="1.0" encoding="UTF-8"?>
<svg width="24px" height="24px" viewBox="0 0 24 24" version="1.1" xmlns="http://www.w3.org/2000/svg" xmlns:xlink="http://www.w3.org/1999/xlink">
    <!-- Generator: Sketch 55.2 (78181) - https://sketchapp.com -->
    <title>Icon / Invoice - On</title>
    <desc>Created with Sketch.</desc>
    <g id="Icon-/-Invoice---On" stroke="none" stroke-width="1" fill="none" fill-rule="evenodd">
        <g id="Group" fill="#D8D8D8" fill-opacity="0">
            <rect id="Rectangle-6" x="0" y="0" width="24" height="24"></rect>
        </g>
        <g id="bill" transform="translate(6.000000, 4.000000)" fill="#FFFFFF" fill-rule="nonzero">
            <path d="M11.7743774,0.410150943 C11.5316981,0.298339623 11.2457358,0.341849057 11.0472453,0.520716981 L9.99988679,1.44807547 C9.97139623,1.47343396 9.92841509,1.47328302 9.90007547,1.44777358 L8.47501887,0.173207547 C8.21728302,-0.0577358491 7.82709434,-0.0577358491 7.56935849,0.173207547 L6.14558491,1.44660377 C6.1169434,1.47218868 6.07366038,1.47218868 6.04501887,1.44660377 L4.62109434,0.173207547 C4.36335849,-0.0576981132 3.97316981,-0.0576981132 3.71543396,0.173207547 L2.29018868,1.44777358 C2.26166038,1.47328302 2.21856604,1.47339623 2.18988679,1.44803774 L1.14158491,0.520716981 C0.863471698,0.273396226 0.437509434,0.298339623 0.190188679,0.57645283 C0.0792830189,0.701169811 0.0186037736,0.862603774 0.0198668543,1.0294717 L0.0198668543,14.9349057 C0.0173962264,15.3076604 0.31754717,15.6118491 0.690301887,15.6143396 C0.857283019,15.6154717 1.01871698,15.5546415 1.1434717,15.4436604 L2.19083019,14.5163019 C2.21932075,14.4909434 2.26230189,14.4910943 2.29064151,14.5166038 L3.71569811,15.7911698 C3.97343396,16.0221132 4.36362264,16.0221132 4.62135849,15.7911698 L6.04528302,14.5177736 C6.07392453,14.4921887 6.11720755,14.4921887 6.14584906,14.5177736 L7.56977358,15.7911321 C7.82754717,16.0219623 8.21769811,16.0219623 8.47543396,15.7911321 L9.90075472,14.516566 C9.92928302,14.4910566 9.97237736,14.4909434 10.0010566,14.5163019 L11.0493585,15.4436226 C11.3275849,15.6908302 11.7535094,15.6656981 12.000717,15.3874717 C12.111434,15.2628679 12.1720377,15.1016226 12.1708895,14.9349057 L12.1708895,1.0294717 C12.1743774,0.762339623 12.0184528,0.518754717 11.7743774,0.410150943 Z M2.51826415,5.41615094 L6.27622642,5.41615094 C6.4429434,5.41615094 6.57811321,5.55132075 6.57811321,5.71803774 C6.57811321,5.88475472 6.4429434,6.01992453 6.27622642,6.01992453 L2.51826415,6.01992453 C2.35154717,6.01992453 2.21637736,5.88475472 2.21637736,5.71803774 C2.21637736,5.55132075 2.35154717,5.41615094 2.51826415,5.41615094 Z M9.67245283,10.5482264 L2.51826415,10.5482264 C2.35154717,10.5482264 2.21637736,10.4130566 2.21637736,10.2463396 C2.21637736,10.0796226 2.35154717,9.94445283 2.51826415,9.94445283 L9.67245283,9.94445283 C9.83916981,9.94445283 9.97433962,10.0796226 9.97433962,10.2463396 C9.97433962,10.4130566 9.83916981,10.5482264 9.67245283,10.5482264 Z M9.67245283,8.28407547 L2.51826415,8.28407547 C2.35154717,8.28407547 2.21637736,8.14890566 2.21637736,7.98218868 C2.21637736,7.8154717 2.35154717,7.68030189 2.51826415,7.68030189 L9.67245283,7.68030189 C9.83916981,7.68030189 9.97433962,7.8154717 9.97433962,7.98218868 C9.97433962,8.14890566 9.83916981,8.28407547 9.67245283,8.28407547 Z" id="Shape"></path>
        </g>
    </g>
</svg>