<?xml version="1.0" encoding="UTF-8"?>
<svg width="24px" height="24px" viewBox="0 0 24 24" version="1.1" xmlns="http://www.w3.org/2000/svg" xmlns:xlink="http://www.w3.org/1999/xlink">
    <!-- Generator: Sketch 55.2 (78181) - https://sketchapp.com -->
    <title>Icon / Master Data-Off</title>
    <desc>Created with Sketch.</desc>
    <g id="Icon-/-Master-Data-Off" stroke="none" stroke-width="1" fill="none" fill-rule="evenodd">
        <g id="Group" fill="#D8D8D8" fill-opacity="0">
            <rect id="Rectangle-6" x="0" y="0" width="24" height="24"></rect>
        </g>
        <g id="folder" transform="translate(4.000000, 5.000000)" fill="#353957" fill-rule="nonzero">
            <path d="M7.386869,2.11538462 L6.02509015,0.435396615 C5.80754208,0.163461538 5.47926685,0.00360576923 5.13100962,0 L1.16391227,0 C0.527644231,0 0,0.535757231 0,1.17202523 L0,12.1356671 C0,12.7719351 0.527644231,13.3076923 1.16391227,13.3076923 L1.34615385,13.3076923 L1.34615385,3.88070915 C1.34615385,2.90519831 2.15640023,2.11538462 3.13206131,2.11538462 L7.386869,2.11538462 Z" id="Path"></path>
            <path d="M14.8360877,2.73076923 L3.13206131,2.73076923 C2.49579327,2.73076923 1.96153846,3.24459135 1.96153846,3.88070915 L1.96153846,13.3076923 L14.8360877,13.3076923 C15.4723558,13.3076923 16,12.7719351 16,12.1356671 L16,3.88070915 C16,3.24459135 15.4723558,2.73076923 14.8360877,2.73076923 L14.8360877,2.73076923 Z M11.9615385,8.96153846 C11.9615385,9.13146035 11.823768,9.26923077 11.6538462,9.26923077 L10.0769231,9.26923077 L10.0769231,10.8461538 C10.0769231,11.0160757 9.93915265,11.1538462 9.76923077,11.1538462 L8.23076923,11.1538462 C8.06084735,11.1538462 7.92307692,11.0160757 7.92307692,10.8461538 L7.92307692,9.26923077 L6.34615385,9.26923077 C6.17623196,9.26923077 6.03846154,9.13146035 6.03846154,8.96153846 L6.03846154,7.42307692 C6.03846154,7.25315504 6.17623196,7.11538462 6.34615385,7.11538462 L7.92307692,7.11538462 L7.92307692,5.53846154 C7.92307692,5.36853965 8.06084735,5.23076923 8.23076923,5.23076923 L9.76923077,5.23076923 C9.93915265,5.23076923 10.0769231,5.36853965 10.0769231,5.53846154 L10.0769231,7.11538462 L11.6538462,7.11538462 C11.823768,7.11538462 11.9615385,7.25315504 11.9615385,7.42307692 L11.9615385,8.96153846 Z" id="Shape"></path>
        </g>
    </g>
</svg>