<?xml version="1.0" encoding="UTF-8"?>
<svg width="24px" height="24px" viewBox="0 0 24 24" version="1.1" xmlns="http://www.w3.org/2000/svg" xmlns:xlink="http://www.w3.org/1999/xlink">
    <!-- Generator: Sketch 55.2 (78181) - https://sketchapp.com -->
    <title>Icon / Patient-On</title>
    <desc>Created with Sketch.</desc>
    <g id="Icon-/-Patient-On" stroke="none" stroke-width="1" fill="none" fill-rule="evenodd">
        <g id="Group" fill="#D8D8D8" fill-opacity="0">
            <rect id="Rectangle-6" x="0" y="0" width="24" height="24"></rect>
        </g>
        <g id="pulse" transform="translate(4.000000, 5.000000)" fill="#FFFFFF" fill-rule="nonzero">
            <path d="M14.73625,1.2881875 C13.0481562,-0.399875 10.3014062,-0.39990625 8.6133125,1.2881875 L7.9998125,1.9016875 L7.3863125,1.2881875 C5.69821875,-0.39990625 2.95146875,-0.39990625 1.263375,1.2881875 C0.44875,2.1029375 0,3.1901875 0,4.3495625 C0,5.03065625 0.1549375,5.68684375 0.44790625,6.27753125 C0.480125,6.34246875 0.5458125,6.38409375 0.61828125,6.38409375 L4.25184375,6.38409375 L4.25184375,6.38409375 L5.16884375,4.58390625 C5.169875,4.581875 5.17115625,4.58 5.17225,4.57796875 C5.1773125,4.5683125 5.18296875,4.559 5.18853125,4.549625 C5.19321875,4.54171875 5.19771875,4.53365625 5.20271875,4.52603125 C5.2079375,4.518125 5.21371875,4.510625 5.21928125,4.50296875 C5.225375,4.4945625 5.2313125,4.48596875 5.2378125,4.478 C5.24290625,4.47175 5.24853125,4.465875 5.25384375,4.45984375 C5.2614375,4.45121875 5.26884375,4.4424375 5.276875,4.4343125 C5.2825,4.428625 5.288625,4.4234375 5.2944375,4.418 C5.30278125,4.41021875 5.31090625,4.40225 5.319625,4.39496875 C5.32659375,4.38915625 5.33409375,4.3839375 5.3413125,4.3784375 C5.3495,4.37221875 5.3575,4.36575 5.36596875,4.36 C5.37390625,4.35459375 5.38234375,4.34984375 5.3905625,4.3448125 C5.39903125,4.339625 5.4073125,4.3341875 5.41603125,4.3294375 C5.4239375,4.32509375 5.43228125,4.32140625 5.44040625,4.31740625 C5.4500625,4.3126875 5.45965625,4.30778125 5.4695625,4.3035625 C5.4770625,4.30040625 5.4849375,4.29775 5.492625,4.2948125 C5.50371875,4.29065625 5.51484375,4.286375 5.52615625,4.282875 C5.52815625,4.28221875 5.53,4.28140625 5.532,4.28078125 C5.53790625,4.27903125 5.54384375,4.278 5.54975,4.27640625 C5.5610625,4.27334375 5.572375,4.27040625 5.58384375,4.26803125 C5.592625,4.26621875 5.601375,4.26490625 5.610125,4.2635 C5.6206875,4.2618125 5.63121875,4.26015625 5.64184375,4.2590625 C5.65128125,4.2580625 5.66065625,4.2575 5.67003125,4.2569375 C5.680125,4.25634375 5.69021875,4.2558125 5.70034375,4.25571875 C5.70996875,4.255625 5.7195,4.25596875 5.7290625,4.256375 C5.7390625,4.25678125 5.74903125,4.25725 5.75903125,4.25815625 C5.7685625,4.25903125 5.778,4.26028125 5.78746875,4.26159375 C5.797375,4.26296875 5.80728125,4.2644375 5.8171875,4.2663125 C5.82671875,4.268125 5.836125,4.270375 5.84553125,4.27265625 C5.8550625,4.2749375 5.86459375,4.27728125 5.87403125,4.2800625 C5.8839375,4.283 5.89365625,4.28634375 5.90334375,4.28978125 C5.9120625,4.29284375 5.92075,4.2958125 5.929375,4.29928125 C5.94,4.3035625 5.9503125,4.3084375 5.96065625,4.31328125 C5.96634375,4.31596875 5.97221875,4.31809375 5.977875,4.32096875 C5.9798125,4.3219375 5.98146875,4.323125 5.98340625,4.324125 C5.99375,4.32953125 6.00375,4.3355625 6.01371875,4.3415625 C6.0209375,4.34590625 6.02834375,4.35 6.03534375,4.3545625 C6.04409375,4.3603125 6.0524375,4.3666875 6.06084375,4.372875 C6.0684375,4.37840625 6.07621875,4.38375 6.0834375,4.38959375 C6.09075,4.3955 6.09753125,4.402 6.10453125,4.40821875 C6.11215625,4.415 6.11996875,4.42153125 6.1271875,4.428625 C6.133875,4.43525 6.1400625,4.44240625 6.1464375,4.449375 C6.1531875,4.45671875 6.16021875,4.4638125 6.1665625,4.4714375 C6.1731875,4.47934375 6.179125,4.48784375 6.18534375,4.49609375 C6.19075,4.50334375 6.19653125,4.510375 6.201625,4.51784375 C6.20746875,4.5264375 6.2126875,4.5355625 6.21809375,4.5445 C6.2228125,4.55228125 6.22784375,4.55990625 6.23221875,4.567875 C6.23678125,4.57621875 6.2406875,4.58496875 6.24484375,4.59359375 C6.249375,4.60284375 6.2540625,4.61203125 6.25809375,4.6215 C6.2614375,4.62928125 6.26415625,4.63740625 6.26715625,4.64540625 C6.27121875,4.65625 6.27534375,4.66703125 6.27878125,4.6780625 C6.2794375,4.68009375 6.2803125,4.68203125 6.2809375,4.684125 L6.96378125,6.96021875 L7.587375,6.3225625 C7.59228125,6.3175625 7.59765625,6.31325 7.60265625,6.3084375 C7.607375,6.30390625 7.611625,6.2990625 7.6165625,6.2946875 C7.6190625,6.29246875 7.62175,6.290625 7.62425,6.28846875 C7.63278125,6.2810625 7.641625,6.27415625 7.65046875,6.26728125 C7.65765625,6.26175 7.66475,6.25615625 7.67209375,6.251 C7.68115625,6.244625 7.69040625,6.23878125 7.69975,6.2329375 C7.7075,6.228125 7.7151875,6.22321875 7.72309375,6.2188125 C7.73225,6.2136875 7.7415,6.2090625 7.75084375,6.20446875 C7.75934375,6.20025 7.7678125,6.196 7.77646875,6.19225 C7.7855,6.1883125 7.794625,6.18484375 7.8038125,6.181375 C7.81303125,6.177875 7.82221875,6.17434375 7.8315625,6.1713125 C7.8405,6.1684375 7.84953125,6.16603125 7.8585625,6.16353125 C7.8683125,6.160875 7.8780625,6.1581875 7.887875,6.15603125 C7.89684375,6.1540625 7.905875,6.15259375 7.91490625,6.15103125 C7.92490625,6.1493125 7.93484375,6.14759375 7.944875,6.146375 C7.9540625,6.14525 7.96328125,6.14465625 7.9725625,6.14396875 C7.98246875,6.14325 7.99234375,6.1425 8.00225,6.1421875 C8.01178125,6.1419375 8.0213125,6.14221875 8.03084375,6.1424375 C8.0404375,6.142625 8.05,6.14284375 8.05959375,6.14346875 C8.06940625,6.14415625 8.07915625,6.14534375 8.0889375,6.14653125 C8.0981875,6.14765625 8.10746875,6.1486875 8.1166875,6.15021875 C8.1265625,6.151875 8.13634375,6.15403125 8.146125,6.15615625 C8.1551875,6.158125 8.16425,6.16003125 8.17325,6.1624375 C8.18290625,6.165 8.19240625,6.16809375 8.2019375,6.1711875 C8.21090625,6.1740625 8.21990625,6.1769375 8.22878125,6.18025 C8.2379375,6.18365625 8.246875,6.18759375 8.25590625,6.19146875 C8.26496875,6.19540625 8.27403125,6.19928125 8.28296875,6.20365625 C8.2913125,6.20778125 8.2995,6.2123125 8.30771875,6.21684375 C8.3169375,6.2219375 8.32615625,6.22703125 8.33515625,6.23265625 C8.34275,6.237375 8.350125,6.24253125 8.3575,6.247625 C8.36665625,6.25390625 8.37575,6.26025 8.384625,6.2670625 C8.3916875,6.27253125 8.3985,6.278375 8.40534375,6.2841875 C8.4139375,6.2914375 8.4224375,6.29878125 8.4306875,6.30659375 C8.43309375,6.308875 8.4356875,6.3108125 8.4380625,6.313125 C8.44278125,6.31775 8.44684375,6.32278125 8.451375,6.32753125 C8.4561875,6.33253125 8.4613125,6.3370625 8.46596875,6.34228125 L9.00515625,6.94546875 L10.0354687,4.647125 C10.0373437,4.64296875 10.0396875,4.6391875 10.0415937,4.6350625 C10.0465312,4.6246875 10.05175,4.6145 10.05725,4.604375 C10.0614062,4.59675 10.0657187,4.58921875 10.0701562,4.58184375 C10.0757812,4.57253125 10.0817187,4.5634375 10.0878437,4.5544375 C10.0930312,4.5468125 10.0982812,4.5393125 10.1037812,4.53196875 C10.109875,4.523875 10.11625,4.51596875 10.12275,4.50815625 C10.1290625,4.500625 10.135375,4.4931875 10.142,4.48603125 C10.1484062,4.4790625 10.155125,4.47228125 10.1619375,4.46559375 C10.1693437,4.45825 10.1769062,4.45103125 10.1846875,4.444125 C10.1913437,4.43821875 10.1981562,4.43253125 10.2050937,4.42690625 C10.21375,4.41984375 10.2225937,4.41303125 10.2315937,4.4065 C10.238375,4.40159375 10.2453125,4.396875 10.2523125,4.3921875 C10.262125,4.3856875 10.2720937,4.3795 10.2822187,4.373625 C10.2860312,4.37140625 10.2895312,4.3688125 10.2934375,4.3666875 C10.2969687,4.36471875 10.3006562,4.3633125 10.3041875,4.3614375 C10.3140937,4.35621875 10.3241562,4.351375 10.3343437,4.34671875 C10.3428125,4.3428125 10.3512812,4.3390625 10.3598437,4.3355625 C10.3688125,4.33196875 10.3779375,4.32871875 10.3870625,4.3255 C10.396875,4.3220625 10.4067187,4.31871875 10.416625,4.31584375 C10.4249687,4.3134375 10.433375,4.31140625 10.4418125,4.3093125 C10.4524375,4.30671875 10.4630312,4.3041875 10.4736875,4.3021875 C10.4821875,4.30059375 10.4907812,4.29940625 10.4993437,4.29821875 C10.5098125,4.29671875 10.5202812,4.29521875 10.5307812,4.29428125 C10.5402187,4.2934375 10.5496562,4.2930625 10.5591875,4.2926875 C10.5688125,4.29228125 10.5784062,4.29184375 10.5879687,4.291875 C10.5984062,4.29190625 10.6088125,4.2925625 10.6192812,4.29315625 C10.6280312,4.2936875 10.6367812,4.294125 10.6454687,4.295 C10.6562187,4.29609375 10.6669375,4.29778125 10.6776875,4.2994375 C10.6862812,4.3008125 10.6949062,4.302125 10.7034062,4.30384375 C10.7135,4.305875 10.7235937,4.30840625 10.7336562,4.31103125 C10.7430312,4.3134375 10.752375,4.3159375 10.7616562,4.31878125 C10.7704687,4.3215 10.77925,4.32459375 10.788,4.32775 C10.7985,4.33153125 10.8089375,4.33553125 10.81925,4.33990625 C10.8229375,4.34146875 10.82675,4.34259375 10.8304375,4.34428125 C10.8345312,4.34609375 10.8382187,4.348375 10.8422187,4.35028125 C10.8528125,4.35528125 10.8631875,4.36059375 10.8735,4.36625 C10.8809062,4.37034375 10.88825,4.37446875 10.8954687,4.37884375 C10.9049687,4.38459375 10.9142812,4.390625 10.9234687,4.39690625 C10.930875,4.40196875 10.9382187,4.40709375 10.945375,4.4124375 C10.9536875,4.41865625 10.9617812,4.4251875 10.96975,4.431875 C10.9770937,4.438 10.9843437,4.4441875 10.9913125,4.45059375 C10.9985,4.45715625 11.0054375,4.4640625 11.0122812,4.47103125 C11.0194062,4.47828125 11.0264375,4.48559375 11.0331875,4.49315625 C11.0392812,4.5 11.0451875,4.507125 11.051,4.51428125 C11.0578125,4.5226875 11.0644375,4.53121875 11.0707812,4.5399375 C11.0759062,4.54703125 11.0808437,4.55425 11.08575,4.561625 C11.0919687,4.5710625 11.0979062,4.580625 11.1035937,4.590375 C11.1059687,4.5944375 11.1086562,4.598125 11.1109375,4.60221875 L12.0735937,6.34409375 L15.401,6.34409375 C15.4744375,6.34409375 15.5405312,6.3013125 15.5724062,6.23515625 C15.8519687,5.6555 15.9998125,5.0145 15.9998125,4.34965625 C15.9998125,3.19025 15.5510937,2.103 14.73625,1.2881875 Z" id="Path"></path>
            <path d="M14.143625,7.54721875 L11.737875,7.54721875 L11.737875,7.547125 C11.5681875,7.547125 11.4151875,7.476625 11.3058125,7.36359375 C11.2529063,7.31815625 11.2069062,7.262875 11.1712187,7.19825 L10.64075,6.23840625 L9.723875,8.2838125 C9.7231875,8.28528125 9.72240625,8.2866875 9.72171875,8.2881875 C9.71859375,8.295 9.715125,8.30165625 9.71178125,8.308375 C9.707,8.317875 9.70203125,8.32721875 9.6968125,8.336375 C9.693375,8.3424375 9.689875,8.34840625 9.6861875,8.354375 C9.6785,8.36684375 9.67034375,8.37896875 9.66184375,8.39071875 C9.66025,8.39296875 9.65878125,8.39528125 9.657125,8.3975 C9.6459375,8.41253125 9.63396875,8.42678125 9.621625,8.44053125 C9.6196875,8.44265625 9.61765625,8.44475 9.6156875,8.446875 C9.6039375,8.4595 9.59175,8.47159375 9.5790625,8.48309375 C9.5779375,8.484125 9.57696875,8.4853125 9.5758125,8.4863125 C9.57515625,8.48690625 9.5744375,8.48740625 9.57378125,8.48796875 C9.54771875,8.51103125 9.519875,8.53165625 9.49053125,8.54971875 C9.4853125,8.55296875 9.47996875,8.55596875 9.4746875,8.55903125 C9.4658125,8.564125 9.45684375,8.56896875 9.44775,8.57359375 C9.44134375,8.57684375 9.43496875,8.580125 9.42846875,8.583125 C9.41940625,8.58734375 9.41021875,8.59115625 9.40096875,8.594875 C9.39290625,8.598125 9.384875,8.601375 9.37675,8.60425 C9.3645625,8.60859375 9.35225,8.612625 9.3398125,8.6161875 C9.33359375,8.6179375 9.3273125,8.61940625 9.32103125,8.62096875 C9.3109375,8.6235 9.30078125,8.625875 9.2905625,8.627875 C9.28478125,8.629 9.2790625,8.63003125 9.27325,8.631 C9.261125,8.633 9.249,8.63459375 9.23678125,8.63590625 C9.23296875,8.6363125 9.22915625,8.63684375 9.22534375,8.63715625 C9.20853125,8.63859375 9.191625,8.63953125 9.17465625,8.63953125 C9.1243125,8.63953125 9.073625,8.63234375 9.02346875,8.6191875 C9.01240625,8.6163125 9.00121875,8.6138125 8.9903125,8.61028125 C8.98690625,8.60915625 8.9835625,8.607625 8.98015625,8.60646875 C8.96315625,8.60065625 8.9463125,8.59440625 8.92978125,8.58703125 C8.9295,8.58690625 8.92921875,8.58684375 8.92896875,8.58671875 C8.92503125,8.5849375 8.92146875,8.58275 8.917625,8.5809375 C8.90309375,8.57409375 8.888625,8.5670625 8.87459375,8.559 C8.86359375,8.55265625 8.85334375,8.54553125 8.84290625,8.538625 C8.83609375,8.53409375 8.82903125,8.53003125 8.82234375,8.52521875 C8.8055,8.5130625 8.7895,8.50003125 8.77421875,8.48640625 C8.7718125,8.48425 8.76959375,8.48178125 8.7671875,8.4795625 C8.754,8.467375 8.74128125,8.45478125 8.72934375,8.44159375 C8.72846875,8.44059375 8.72740625,8.43978125 8.72653125,8.43878125 L7.9980625,7.6238125 L7.111125,8.53078125 C7.1108125,8.53109375 7.1104375,8.531375 7.110125,8.53171875 C7.08184375,8.5605625 7.050625,8.58675 7.01653125,8.60965625 C7.01028125,8.613875 7.00375,8.61728125 6.997375,8.62121875 C6.9869375,8.6276875 6.97671875,8.63434375 6.96584375,8.64015625 C6.9279375,8.66053125 6.88828125,8.67634375 6.84765625,8.688 C6.83284375,8.69225 6.81803125,8.69590625 6.8031875,8.69903125 C6.798,8.700125 6.79284375,8.70096875 6.78765625,8.701875 C6.77396875,8.704375 6.76034375,8.706375 6.74671875,8.70790625 C6.7428125,8.70834375 6.7389375,8.70884375 6.735,8.7091875 C6.716875,8.71084375 6.69875,8.71196875 6.68078125,8.71196875 C6.66240625,8.71196875 6.64421875,8.710875 6.6260625,8.70925 C6.62309375,8.70896875 6.62015625,8.7085 6.6171875,8.70815625 C6.60271875,8.70659375 6.58834375,8.704625 6.574125,8.70203125 C6.5684375,8.70103125 6.5628125,8.69975 6.55715625,8.69859375 C6.5458125,8.6961875 6.5345625,8.6935 6.523375,8.6905 C6.51646875,8.688625 6.509625,8.6866875 6.5028125,8.6845625 C6.4929375,8.68146875 6.4831875,8.67803125 6.47353125,8.67446875 C6.46628125,8.6718125 6.459,8.66928125 6.451875,8.666375 C6.44096875,8.661875 6.4303125,8.65678125 6.41965625,8.65165625 C6.41015625,8.64703125 6.40078125,8.64221875 6.39140625,8.63709375 C6.38078125,8.63125 6.3701875,8.6253125 6.3599375,8.6188125 C6.354125,8.615125 6.3485,8.61115625 6.3428125,8.60725 C6.33290625,8.6005 6.32315625,8.59353125 6.313625,8.5861875 C6.30890625,8.58253125 6.3041875,8.5788125 6.2995625,8.575 C6.2879375,8.5655 6.27675,8.5555625 6.26584375,8.54515625 C6.26409375,8.54346875 6.26215625,8.5420625 6.2604375,8.54034375 C6.25984375,8.53975 6.2593125,8.53909375 6.25871875,8.5385 C6.24475,8.52478125 6.231375,8.5104375 6.21871875,8.49528125 C6.21846875,8.49496875 6.21825,8.494625 6.218,8.494375 C6.20665625,8.4806875 6.1959375,8.46634375 6.18578125,8.45153125 C6.1825625,8.446875 6.17959375,8.44215625 6.1765625,8.4374375 C6.1698125,8.4270625 6.163375,8.41646875 6.15721875,8.4055625 C6.15371875,8.39934375 6.1503125,8.393125 6.14703125,8.38684375 C6.14209375,8.3773125 6.13753125,8.3675 6.1330625,8.35765625 C6.1298125,8.35046875 6.12646875,8.34334375 6.12353125,8.33603125 C6.1196875,8.3265 6.11634375,8.31665625 6.1129375,8.30684375 C6.110375,8.299375 6.10746875,8.29203125 6.1051875,8.2845 C6.1050625,8.2840625 6.104875,8.283625 6.10475,8.2831875 L5.55996875,6.46725 L5.15665625,7.25896875 C5.1555,7.26125 5.154125,7.263375 5.1529375,7.26565625 C5.1499375,7.27134375 5.1468125,7.276875 5.143625,7.28246875 C5.1375,7.2933125 5.1310625,7.3038125 5.12440625,7.314125 C5.1218125,7.318125 5.11928125,7.3221875 5.11659375,7.326125 C5.096125,7.35603125 5.07325,7.3835625 5.048375,7.4086875 C5.0465625,7.41053125 5.04471875,7.41234375 5.042875,7.41415625 C5.03059375,7.42628125 5.01796875,7.43784375 5.0048125,7.44878125 C5.00409375,7.449375 5.003375,7.45003125 5.00265625,7.450625 C4.98865625,7.462125 4.9741875,7.4729375 4.95925,7.4830625 C4.9565625,7.48490625 4.9538125,7.4865625 4.951125,7.48834375 C4.939375,7.49603125 4.9274375,7.5033125 4.9151875,7.51015625 C4.9106875,7.5126875 4.90628125,7.51521875 4.90175,7.517625 C4.8873125,7.52525 4.872625,7.53246875 4.8576875,7.538875 C4.853125,7.54084375 4.848375,7.5424375 4.84371875,7.5443125 C4.83240625,7.5488125 4.82103125,7.55303125 4.80946875,7.556875 C4.80321875,7.55896875 4.79690625,7.56096875 4.79059375,7.5628125 C4.77640625,7.56696875 4.762125,7.57071875 4.74765625,7.57384375 C4.74415625,7.57459375 4.7406875,7.575375 4.73715625,7.5760625 C4.7210625,7.57928125 4.70478125,7.581625 4.6884375,7.58346875 C4.684375,7.58390625 4.6803125,7.58434375 4.67621875,7.58471875 C4.65765625,7.5864375 4.639,7.58765625 4.62021875,7.58765625 C4.61940625,7.58765625 4.61865625,7.58753125 4.61784375,7.58753125 L1.89659375,7.58753125 C1.7280625,7.58753125 1.64365625,7.7913125 1.76284375,7.9105 L6.9839375,13.1315938 C7.17853125,13.3262188 7.39221875,13.5020938 7.61915625,13.6555313 C7.72728125,13.743125 7.86121875,13.7904375 7.99765625,13.7904375 C8.1105,13.7904375 8.22465625,13.7587188 8.32615625,13.692375 C8.57371875,13.5305938 8.8059375,13.3419375 9.01625,13.1315938 L14.2774375,7.87040625 C14.3965625,7.751 14.312125,7.54721875 14.143625,7.54721875 Z" id="Path"></path>
        </g>
    </g>
</svg>