<?xml version="1.0" encoding="UTF-8"?>
<svg width="24px" height="24px" viewBox="0 0 24 24" version="1.1" xmlns="http://www.w3.org/2000/svg" xmlns:xlink="http://www.w3.org/1999/xlink">
    <!-- Generator: Sketch 55.2 (78181) - https://sketchapp.com -->
    <title>Icon / Payor-On</title>
    <desc>Created with Sketch.</desc>
    <g id="Icon-/-Payor-On" stroke="none" stroke-width="1" fill="none" fill-rule="evenodd">
        <g id="Group" fill="#D8D8D8" fill-opacity="0">
            <rect id="Rectangle-6" x="0" y="0" width="24" height="24"></rect>
        </g>
        <g id="real-estate" transform="translate(4.000000, 4.000000)" fill="#FFFFFF" fill-rule="nonzero">
            <polygon id="Path" points="6.5625 14.09375 9.40625 14.09375 9.40625 16 6.5625 16"></polygon>
            <path d="M5.625,13.625 C5.625,13.3659063 5.83465625,13.15625 6.09375,13.15625 L9.875,13.15625 C10.1340937,13.15625 10.34375,13.3659063 10.34375,13.625 L10.34375,16 L12.25,16 L12.25,4.25 C12.25,3.991125 12.040125,3.78125 11.78125,3.78125 L10.34375,3.78125 L10.34375,2.375 C10.34375,2.116125 10.133875,1.90625 9.875,1.90625 L8.46875,1.90625 L8.46875,0.46875 C8.46875,0.20965625 8.25909375,0 8,0 C7.74090625,0 7.53125,0.20965625 7.53125,0.46875 L7.53125,1.90625 L6.09375,1.90625 C5.834875,1.90625 5.625,2.116125 5.625,2.375 L5.625,3.78125 L4.21875,3.78125 C3.959875,3.78125 3.75,3.991125 3.75,4.25 L3.75,16 L5.625,16 L5.625,13.625 Z M6.09375,6.59375 L9.875,6.59375 C10.1340937,6.59375 10.34375,6.80340625 10.34375,7.0625 C10.34375,7.32159375 10.1340937,7.53125 9.875,7.53125 L6.09375,7.53125 C5.83465625,7.53125 5.625,7.32159375 5.625,7.0625 C5.625,6.80340625 5.83465625,6.59375 6.09375,6.59375 Z M6.09375,8.46875 L9.875,8.46875 C10.1340937,8.46875 10.34375,8.67840625 10.34375,8.9375 C10.34375,9.19659375 10.1340937,9.40625 9.875,9.40625 L6.09375,9.40625 C5.83465625,9.40625 5.625,9.19659375 5.625,8.9375 C5.625,8.67840625 5.83465625,8.46875 6.09375,8.46875 Z M6.09375,10.34375 L9.875,10.34375 C10.1340937,10.34375 10.34375,10.5534063 10.34375,10.8125 C10.34375,11.0715937 10.1340937,11.28125 9.875,11.28125 L6.09375,11.28125 C5.83465625,11.28125 5.625,11.0715937 5.625,10.8125 C5.625,10.5534063 5.83465625,10.34375 6.09375,10.34375 Z" id="Shape"></path>
            <path d="M0.46875,16 L2.8125,16 L2.8125,7.53125 L1.875,7.53125 C1.61590625,7.53125 1.40625,7.74090625 1.40625,8 L1.40625,9.40625 L0.46875,9.40625 C0.20965625,9.40625 0,9.61590625 0,9.875 L0,15.53125 C0,15.7903437 0.20965625,16 0.46875,16 Z M0.9375,11.75 C0.9375,11.4909063 1.14715625,11.28125 1.40625,11.28125 C1.66534375,11.28125 1.875,11.4909063 1.875,11.75 L1.875,13.625 C1.875,13.8840937 1.66534375,14.09375 1.40625,14.09375 C1.14715625,14.09375 0.9375,13.8840937 0.9375,13.625 L0.9375,11.75 Z" id="Shape"></path>
            <path d="M15.53125,9.40625 L14.59375,9.40625 L14.59375,8 C14.59375,7.74090625 14.3840937,7.53125 14.125,7.53125 L13.1875,7.53125 L13.1875,16 L15.53125,16 C15.7903437,16 16,15.7903437 16,15.53125 L16,9.875 C16,9.61590625 15.7903437,9.40625 15.53125,9.40625 Z M15.0625,13.625 C15.0625,13.8840937 14.8528437,14.09375 14.59375,14.09375 C14.3346563,14.09375 14.125,13.8840937 14.125,13.625 L14.125,11.75 C14.125,11.4909063 14.3346563,11.28125 14.59375,11.28125 C14.8528437,11.28125 15.0625,11.4909063 15.0625,11.75 L15.0625,13.625 Z" id="Shape"></path>
        </g>
    </g>
</svg>