<?xml version="1.0" encoding="UTF-8"?>
<svg width="24px" height="24px" viewBox="0 0 24 24" version="1.1" xmlns="http://www.w3.org/2000/svg" xmlns:xlink="http://www.w3.org/1999/xlink">
    <!-- Generator: Sketch 55.2 (78181) - https://sketchapp.com -->
    <title>Icon / Report-On</title>
    <desc>Created with Sketch.</desc>
    <g id="Icon-/-Report-On" stroke="none" stroke-width="1" fill="none" fill-rule="evenodd">
        <g id="Group" fill="#D8D8D8" fill-opacity="0">
            <rect id="Rectangle-6" x="0" y="0" width="24" height="24"></rect>
        </g>
        <g id="file" transform="translate(6.000000, 4.000000)" fill="#FFFFFF" fill-rule="nonzero">
            <path d="M3.53747559,2.98535156 L3.53747559,0 L3.50415038,0 C3.37951659,0 3.26013184,0.0495605625 3.17199706,0.13757325 L0.15319825,3.15637206 C0.0650634688,3.24450684 0.015625,3.36389159 0.015625,3.48852538 L0.015625,3.52197266 L3.00097656,3.52197266 C3.296875,3.52197266 3.53747559,3.28125 3.53747559,2.98535156 Z" id="Path"></path>
            <path d="M10.5145264,12.5449219 L10.5145264,1.47595216 C10.5145264,0.664428719 9.85839844,2.84217094e-14 9.03857422,2.84217094e-14 L4.47705078,2.84217094e-14 L4.47705078,2.98535156 C4.47705078,3.79919434 3.81481934,4.46130372 3.00097656,4.46130372 L0.015625,4.46130372 L0.015625,12.5449219 C0.015625,13.3587647 0.677734375,14.020874 1.49157716,14.020874 L9.03857422,14.020874 C9.85009766,14.020874 10.5145264,13.3647461 10.5145264,12.5449219 L10.5145264,12.5449219 Z M5.51660156,11.0020752 L3.00097656,11.0020752 C2.74157716,11.0020752 2.53125,10.7917481 2.53125,10.5323486 C2.53125,10.2729492 2.74157716,10.0626221 3.00097656,10.0626221 L5.51660156,10.0626221 C5.77612306,10.0626221 5.98632813,10.2729492 5.98632813,10.5323486 C5.98632813,10.7917481 5.77612306,11.0020752 5.51660156,11.0020752 Z M7.52917481,8.98950194 L3.00097656,8.98950194 C2.74157716,8.98950194 2.53125,8.77929688 2.53125,8.51977538 C2.53125,8.26037597 2.74157716,8.05004881 3.00097656,8.05004881 L7.52917481,8.05004881 C7.78857422,8.05004881 7.99890138,8.26037597 7.99890138,8.51977538 C7.99890138,8.77929688 7.78857422,8.98950194 7.52917481,8.98950194 Z M7.52917481,6.97705078 L3.00097656,6.97705078 C2.74157716,6.97705078 2.53125,6.76672363 2.53125,6.50732422 C2.53125,6.24792481 2.74157716,6.03759766 3.00097656,6.03759766 L7.52917481,6.03759766 C7.78857422,6.03759766 7.99890138,6.24792481 7.99890138,6.50732422 C7.99890138,6.76672363 7.78857422,6.97705078 7.52917481,6.97705078 Z" id="Shape"></path>
            <path d="M11.4539795,2.03503419 L11.4539795,12.5449219 C11.4539795,13.876709 10.3704834,14.9603272 9.03857422,14.9603272 L2.09399413,14.9603272 C2.28051756,15.5618897 2.842041,16 3.50415038,16 L11.0510254,16 C11.8626709,16 12.5270996,15.3438721 12.5270996,14.5240478 L12.5270996,3.45507813 C12.5270996,2.7821045 12.0756836,2.21069338 11.4539795,2.03503419 Z" id="Path"></path>
        </g>
    </g>
</svg>