<?xml version="1.0" encoding="UTF-8"?>
<svg width="24px" height="24px" viewBox="0 0 24 24" version="1.1" xmlns="http://www.w3.org/2000/svg" xmlns:xlink="http://www.w3.org/1999/xlink">
    <!-- Generator: Sketch 55.2 (78181) - https://sketchapp.com -->
    <title>Icon / Rewards-On</title>
    <desc>Created with Sketch.</desc>
    <g id="Icon-/-Rewards-On" stroke="none" stroke-width="1" fill="none" fill-rule="evenodd">
        <g id="Group">
            <rect id="Rectangle-6" fill-opacity="0" fill="#D8D8D8" x="0" y="0" width="24" height="24"></rect>
            <g id="medal" transform="translate(6.000000, 4.000000)" fill="#FFFFFF" fill-rule="nonzero">
                <path d="M6.0819961,2.80695517 C4.27614815,2.80695517 2.8071423,4.27596101 2.8071423,6.08180897 C2.8071423,7.88765692 4.27614815,9.35666277 6.0819961,9.35666277 C7.88784405,9.35666277 9.3568499,7.88765692 9.3568499,6.08180897 C9.3568499,4.27596101 7.88784405,2.80695517 6.0819961,2.80695517 Z" id="Shape"></path>
                <path d="M11.6657778,4.81303704 C11.5600468,4.69888499 11.5176296,4.54044444 11.5519376,4.38917739 C11.7693255,3.43759844 11.2172788,2.47915789 10.2828538,2.19097076 C10.1347057,2.14512281 10.0186823,2.02909942 9.97283431,1.88032749 C9.6871423,0.954947368 8.74336062,0.404460039 7.79957895,0.606253411 C7.63334113,0.641808967 7.45837037,0.59471345 7.33205458,0.480561404 C6.61470565,-0.166612086 5.52215205,-0.159438596 4.81322417,0.49802729 C4.69907212,0.603758285 4.54063158,0.646175439 4.38936452,0.611867446 C3.43809747,0.394479532 2.47965692,0.946526316 2.19115789,1.88032749 C2.14530994,2.02909942 2.02928655,2.14512281 1.8811384,2.19097076 C0.948272904,2.47853411 0.394354776,3.43603899 0.612054581,4.38917739 C0.646362573,4.54044444 0.603945419,4.69888499 0.498214425,4.81303704 C-0.165489279,5.52851462 -0.166424951,6.63416764 0.498214425,7.3505809 C0.603945419,7.46473294 0.646362573,7.62317349 0.612054581,7.77444055 C0.394666667,8.7257076 0.946401559,9.68414815 1.88051462,9.97264717 C2.02928655,10.0184951 2.14530994,10.1345185 2.19115789,10.2826667 C2.47872125,11.2155322 3.43622612,11.7694503 4.38936452,11.5520624 C4.54063158,11.5174425 4.69907212,11.5598596 4.81322417,11.6655906 C5.52870175,12.3292943 6.63435478,12.33023 7.35076803,11.6655906 C7.46492008,11.5598596 7.62336062,11.5174425 7.77462768,11.5520624 C8.72620663,11.7691384 9.68433528,11.2170916 9.97283431,10.2832904 C10.0186823,10.1345185 10.1347057,10.0184951 10.2828538,9.97264717 C11.2157193,9.68508382 11.7696374,8.72757895 11.5519376,7.77444055 C11.5176296,7.62317349 11.5600468,7.46473294 11.6657778,7.3505809 C12.3294815,6.63510331 12.3304172,5.52945029 11.6657778,4.81303704 Z M6.0819961,10.2923353 C3.7602807,10.2923353 1.87146979,8.40352437 1.87146979,6.08180897 C1.87146979,3.76009357 3.7602807,1.87128265 6.0819961,1.87128265 C8.4037115,1.87128265 10.2925224,3.76009357 10.2925224,6.08180897 C10.2925224,8.40352437 8.4037115,10.2923353 6.0819961,10.2923353 Z" id="Shape"></path>
                <path d="M9.3568499,12.2809513 L9.3568499,15.5009123 C9.3568499,15.8202885 9.04339961,16.0454737 8.74117739,15.9447329 L6.0819961,15.0583392 L3.42281481,15.9447329 C3.11996881,16.0457856 2.8071423,15.8196647 2.8071423,15.5009123 L2.8071423,12.2809513 C3.30376608,12.5090058 3.84567641,12.580117 4.36004678,12.5076959 C5.37150877,13.2967797 6.79279532,13.2967797 7.80394542,12.5076959 C8.30911501,12.578807 8.85289669,12.5128109 9.3568499,12.2809513 Z" id="Path"></path>
            </g>
        </g>
    </g>
</svg>