<?xml version="1.0" encoding="UTF-8"?>
<svg width="24px" height="24px" viewBox="0 0 24 24" version="1.1" xmlns="http://www.w3.org/2000/svg" xmlns:xlink="http://www.w3.org/1999/xlink">
    <!-- Generator: Sketch 55.2 (78181) - https://sketchapp.com -->
    <title>Icon / search</title>
    <desc>Created with Sketch.</desc>
    <g id="Icon-/-search" stroke="none" stroke-width="1" fill="none" fill-rule="evenodd">
        <g id="Group-4">
            <rect id="Rectangle" fill-opacity="0" fill="#D8D8D8" x="0" y="0" width="24" height="24"></rect>
            <path d="M19.7811938,17.8437007 C19.9270268,17.9895337 19.999943,18.166616 19.999943,18.3749488 C19.999943,18.5832815 19.9270268,18.7603639 19.7811938,18.9061969 L18.9061969,19.7811938 C18.7603639,19.9270268 18.5832815,19.999943 18.3749488,19.999943 C18.166616,19.999943 17.9895337,19.9270268 17.8437007,19.7811938 L14.7187118,16.6562049 C14.5728788,16.5103719 14.4999626,16.3332896 14.4999626,16.1249568 L14.4999626,15.6249586 C13.3333002,16.5416218 11.9999715,16.9999537 10.4999768,16.9999537 C9.31248107,16.9999537 8.22394344,16.7082882 7.23436348,16.1249568 C6.24478351,15.5416254 5.4583283,14.7551702 4.87499688,13.7655902 C4.29166547,12.7760102 4,11.6874726 4,10.4999768 C4,9.31248107 4.29166547,8.22394344 4.87499688,7.23436348 C5.4583283,6.24478351 6.24478351,5.4583283 7.23436348,4.87499688 C8.22394344,4.29166547 9.31248107,4 10.4999768,4 C11.6874726,4 12.7760102,4.29166547 13.7655902,4.87499688 C14.7551702,5.4583283 15.5416254,6.24478351 16.1249568,7.23436348 C16.7082882,8.22394344 16.9999537,9.31248107 16.9999537,10.4999768 C16.9999537,11.9999715 16.5416218,13.3333002 15.6249586,14.4999626 L16.1249568,14.4999626 C16.3332896,14.4999626 16.5103719,14.5728788 16.6562049,14.7187118 L19.7811938,17.8437007 Z M10.4999768,14.4999626 C11.2291408,14.4999626 11.9010134,14.3228797 12.5155947,13.9687145 C13.130176,13.6145492 13.6145492,13.130176 13.9687145,12.5155947 C14.3228797,11.9010134 14.4999626,11.2291408 14.4999626,10.4999768 C14.4999626,9.77081293 14.3228797,9.09894033 13.9687145,8.48435902 C13.6145492,7.86977772 13.130176,7.38540445 12.5155947,7.0312392 C11.9010134,6.67707396 11.2291408,6.49999109 10.4999768,6.49999109 C9.77081293,6.49999109 9.09894033,6.67707396 8.48435902,7.0312392 C7.86977772,7.38540445 7.38540445,7.86977772 7.0312392,8.48435902 C6.67707396,9.09894033 6.49999109,9.77081293 6.49999109,10.4999768 C6.49999109,11.2291408 6.67707396,11.9010134 7.0312392,12.5155947 C7.38540445,13.130176 7.86977772,13.6145492 8.48435902,13.9687145 C9.09894033,14.3228797 9.77081293,14.4999626 10.4999768,14.4999626 Z" id="search" fill="#A7A6C5"></path>
        </g>
    </g>
</svg>