<?xml version="1.0" encoding="UTF-8"?>
<svg width="24px" height="24px" viewBox="0 0 24 24" version="1.1" xmlns="http://www.w3.org/2000/svg" xmlns:xlink="http://www.w3.org/1999/xlink">
    <!-- Generator: Sketch 55.2 (78181) - https://sketchapp.com -->
    <title>Icon/see-On</title>
    <desc>Created with Sketch.</desc>
    <g id="Icon/see-On" stroke="none" stroke-width="1" fill="none" fill-rule="evenodd">
        <g id="Group" fill-rule="nonzero">
            <rect id="Rectangle" x="0" y="0" width="24" height="24"></rect>
        </g>
        <path d="M19.8055556,11.4444444 C19.9351853,11.648148 20,11.8703702 20,12.1111111 C20,12.351852 19.9351853,12.5740742 19.8055556,12.7777778 C19.0092591,14.1296298 17.9259258,15.2037036 16.5555556,16 C15.1666667,16.8148147 13.648148,17.2222222 12,17.2222222 C10.351852,17.2222222 8.83333333,16.8148147 7.44444444,16 C6.07407422,15.2037036 4.99074088,14.1296298 4.19444444,12.7777778 C4.06481467,12.5740742 4,12.351852 4,12.1111111 C4,11.8703702 4.06481467,11.648148 4.19444444,11.4444444 C4.99074088,10.0925925 6.07407422,9.01851866 7.44444444,8.22222222 C8.83333333,7.40740755 10.351852,7 12,7 C13.648148,7 15.1666667,7.40740755 16.5555556,8.22222222 C17.9259258,9.01851866 19.0092591,10.0925925 19.8055556,11.4444444 Z M12,15.8888889 C13.4074075,15.8888889 14.6990742,15.5462964 15.875,14.8611111 C17.0509258,14.1759258 17.9814813,13.2592591 18.6666667,12.1111111 C18.2407409,11.4074075 17.7175925,10.7824075 17.0972222,10.2361111 C16.476852,9.68981467 15.7777778,9.25 15,8.91666667 C15.5185187,9.60185199 15.7777778,10.3703702 15.7777778,11.2222222 C15.7777778,11.9074075 15.6064813,12.5370369 15.2638889,13.1111111 C14.9212964,13.6851853 14.4629631,14.1435187 13.8888889,14.4861111 C13.3148147,14.8287036 12.6851853,15 12,15 C11.3148147,15 10.6851853,14.8287036 10.1111111,14.4861111 C9.5370369,14.1435187 9.07870356,13.6851853 8.73611111,13.1111111 C8.39351866,12.5370369 8.22222222,11.9074075 8.22222222,11.2222222 C8.22222222,10.5925925 8.37037023,10 8.66666667,9.44444444 C8.66666667,9.87037023 8.81944444,10.2361111 9.125,10.5416667 C9.43055556,10.8472222 9.79629644,11 10.2222222,11 C10.648148,11 11.0138889,10.8472222 11.3194444,10.5416667 C11.625,10.2361111 11.7777778,9.87037023 11.7777778,9.44444444 C11.7777778,9.01851866 11.6296298,8.65740755 11.3333333,8.36111111 C10.0740742,8.47222222 8.91666667,8.86111111 7.86111111,9.52777778 C6.80555556,10.1944444 5.9629631,11.0555556 5.33333333,12.1111111 C6.01851866,13.2592591 6.94907422,14.1759258 8.125,14.8611111 C9.30092578,15.5462964 10.5925925,15.8888889 12,15.8888889 Z" id="eye" fill="#353957"></path>
    </g>
</svg>