<?xml version="1.0" encoding="UTF-8"?>
<svg width="24px" height="24px" viewBox="0 0 24 24" version="1.1" xmlns="http://www.w3.org/2000/svg" xmlns:xlink="http://www.w3.org/1999/xlink">
    <!-- Generator: Sketch 55.2 (78181) - https://sketchapp.com -->
    <title>Icon / Theme - Off</title>
    <desc>Created with Sketch.</desc>
    <g id="Icon-/-Theme---Off" stroke="none" stroke-width="1" fill="none" fill-rule="evenodd">
        <g id="Group" fill="#D8D8D8" fill-opacity="0">
            <rect id="Rectangle-6" x="0" y="0" width="24" height="24"></rect>
        </g>
        <g id="paint-brush" transform="translate(4.000000, 4.000000)" fill="#353957" fill-rule="nonzero">
            <path d="M13.6776511,0 C12.9574468,0 12.2694809,0.343965957 11.831183,0.929089362 L9.14502128,4.75213617 C8.85848511,5.13477447 8.23366809,5.17909787 7.89644255,4.84115745 L7.14182128,4.08653617 C6.84820426,3.79291915 6.45777021,3.63121702 6.04251915,3.63121702 L5.94039149,3.63121702 C5.52514043,3.63121702 5.13470638,3.79291915 4.84108936,4.08653617 L3.73753191,5.19009362 C3.5956766,5.33194894 3.5956766,5.56173617 3.73753191,5.70355745 L10.2737021,12.2397277 C10.3446128,12.3106383 10.4375489,12.3461106 10.5304511,12.3461106 C10.6233532,12.3461106 10.7162553,12.3106383 10.7872,12.2397277 L11.8907574,11.1361702 C12.1843745,10.8425532 12.3460766,10.4521191 12.3460766,10.0368681 L12.3460766,9.93474043 C12.3460766,9.51948936 12.1843745,9.12905532 11.8907574,8.8354383 L11.1361362,8.08081702 C10.9818894,7.92657021 10.893583,7.71308936 10.893583,7.49501277 C10.893583,7.23577872 11.0173277,6.98791489 11.2159319,6.83897872 L15.0570553,4.13933617 C15.6332936,3.70777872 15.9772596,3.01984681 15.9772596,2.29960851 C15.9772596,1.03155745 14.9457362,0 13.6776511,0 Z M13.7985702,2.90495319 C13.3982298,2.90495319 13.0723404,2.57906383 13.0723404,2.1787234 C13.0723404,1.77838298 13.3982298,1.45249362 13.7985702,1.45249362 C14.1989106,1.45249362 14.524834,1.77838298 14.524834,2.1787234 C14.524834,2.57906383 14.1989447,2.90495319 13.7985702,2.90495319 Z" id="Shape"></path>
            <path d="M3.54325106,6.53617021 C3.40139574,6.39431489 3.17160851,6.39431489 3.02978723,6.53617021 L0.425531915,9.14042553 C0.151046809,9.4148766 0,9.7794383 0,10.1673872 C0,10.5553362 0.151080851,10.9198638 0.425531915,11.1943489 L0.983319149,11.7525106 C1.09749787,11.8670638 1.27516596,11.8922213 1.41630638,11.8131404 L2.69644255,11.1021617 L1.98546383,12.3822979 C1.9067234,12.5237787 1.93157447,12.7007319 2.04609362,12.8152851 L4.78297872,15.5517957 C5.05746383,15.8262809 5.42199149,15.9773277 5.80994043,15.9773277 C6.19788936,15.9773277 6.56241702,15.8262468 6.83690213,15.5517957 L9.44115745,12.9475404 C9.58301277,12.8056851 9.58301277,12.5758979 9.44115745,12.4340766 L3.54325106,6.53617021 Z" id="Path"></path>
        </g>
    </g>
</svg>