<?xml version="1.0" encoding="UTF-8"?>
<svg width="24px" height="24px" viewBox="0 0 24 24" version="1.1" xmlns="http://www.w3.org/2000/svg" xmlns:xlink="http://www.w3.org/1999/xlink">
    <!-- Generator: Sketch 55.2 (78181) - https://sketchapp.com -->
    <title>Icon / User-Off</title>
    <desc>Created with Sketch.</desc>
    <g id="Icon-/-User-Off" stroke="none" stroke-width="1" fill="none" fill-rule="evenodd">
        <g id="Group" fill="#D8D8D8" fill-opacity="0">
            <rect id="Rectangle-6" x="0" y="0" width="24" height="24"></rect>
        </g>
        <g id="user" transform="translate(5.000000, 4.000000)" fill="#353957" fill-rule="nonzero">
            <path d="M6.5606725,7.69225145 C7.61744639,7.69225145 8.53252925,7.313231 9.28021442,6.56542397 C10.0278996,5.81773879 10.4069201,4.90289962 10.4069201,3.8460039 C10.4069201,2.78947368 10.0278996,1.87451265 9.2800926,1.12658383 C8.53228557,0.379020476 7.61732457,0 6.5606725,0 C5.50377681,0 4.58893761,0.379020476 3.84125243,1.12670565 C3.09356725,1.87439083 2.71442495,2.78935186 2.71442495,3.8460039 C2.71442495,4.90289962 3.09356725,5.81786062 3.84137425,6.56554579 C4.58918129,7.31310915 5.50414228,7.69225145 6.5606725,7.69225145 Z" id="Path"></path>
            <path d="M13.2905702,12.2792398 C13.2690058,11.9680799 13.2253898,11.628655 13.1611842,11.2702242 C13.0963694,10.9091131 13.0129142,10.5677388 12.9130117,10.2557261 C12.8098197,9.93323587 12.6694688,9.6147661 12.4959795,9.30957602 C12.3159113,8.99281188 12.1044103,8.71698342 11.8670809,8.49000976 C11.6189084,8.25255847 11.3150585,8.06164716 10.963694,7.9223928 C10.6135478,7.78386938 10.2255117,7.71369394 9.81042885,7.71369394 C9.64741714,7.71369394 9.48976608,7.78057993 9.18530701,7.97880115 C8.99792886,8.10099902 8.77875244,8.24232455 8.53411306,8.39863548 C8.32492691,8.53192009 8.04154483,8.65679825 7.69152047,8.76985868 C7.35002436,8.88036061 7.00328948,8.93640352 6.66106236,8.93640352 C6.31883527,8.93640352 5.97222222,8.88036061 5.63036064,8.76985868 C5.28070175,8.65692008 4.99731967,8.53204192 4.7883772,8.3987573 C4.54605262,8.24390837 4.32675437,8.10258283 4.13657407,7.97867933 C3.8324805,7.78045811 3.67470759,7.71357212 3.51169591,7.71357212 C3.09649123,7.71357212 2.708577,7.78386938 2.35855264,7.92251462 C2.00743177,8.06152533 1.70346005,8.25243665 1.45504387,8.49013159 C1.21783626,8.7172271 1.00621346,8.99293374 0.826388897,9.30957602 C0.653021442,9.6147661 0.512670565,9.93311404 0.409356725,10.255848 C0.309576016,10.5678606 0.226120858,10.9091131 0.161306043,11.2702242 C0.0971003821,11.6281676 0.0534844133,11.9677144 0.0319200936,12.2796053 C0.0107212476,12.5851608 0,12.9022905 0,13.2225877 C0,14.0561647 0.264985388,14.7309942 0.787524366,15.2286793 C1.30360624,15.7197856 1.9864766,15.9689327 2.81688596,15.9689327 L10.5059698,15.9689327 C11.3363791,15.9689327 12.0190058,15.7199074 12.5352095,15.2286793 C13.0578704,14.7313597 13.3228557,14.0564084 13.3228557,13.2224659 C13.3228557,12.9007066 13.3118908,12.5833333 13.2905702,12.2792398 L13.2905702,12.2792398 Z" id="Path"></path>
        </g>
    </g>
</svg>