<?xml version="1.0" encoding="UTF-8"?>
<svg width="24px" height="24px" viewBox="0 0 24 24" version="1.1" xmlns="http://www.w3.org/2000/svg" xmlns:xlink="http://www.w3.org/1999/xlink">
    <!-- Generator: Sketch 64 (93537) - https://sketch.com -->
    <title>Icon / close</title>
    <desc>Created with Sketch.</desc>
    <g id="Icon-/-close" stroke="none" stroke-width="1" fill="none" fill-rule="evenodd">
        <g id="Group" fill="#D8D8D8" fill-opacity="0">
            <rect id="Rectangle-6" x="0" y="0" width="24" height="24"></rect>
        </g>
        <path d="M14.5849734,12.0000198 L17.7121632,15.1272041 C18.0959208,15.5112669 18.0959208,16.1334273 17.7121632,16.5171849 L17.0171575,17.2121906 C16.6333999,17.5959482 16.0109038,17.5959482 15.6271767,17.2121906 L12.4999924,14.0850008 L9.37279708,17.2121906 C8.98906996,17.5959482 8.36657389,17.5959482 7.98281626,17.2121906 L7.28781059,16.5171849 C6.90405296,16.1331221 6.90405296,15.5109312 7.28781059,15.1272041 L10.4150004,12.0000198 L7.28781059,8.8728245 C6.90405296,8.48876169 6.90405296,7.86660131 7.28781059,7.48284368 L7.98281626,6.78783801 C8.36687907,6.40408038 8.98906996,6.40408038 9.37279708,6.78783801 L12.4999924,9.91502782 L15.6271767,6.78783801 C16.0112395,6.40408038 16.6333999,6.40408038 17.0171575,6.78783801 L17.7121632,7.48284368 C18.0959208,7.86690648 18.0959208,8.48909738 17.7121632,8.8728245 L14.5849734,12.0000198 Z" id="t" fill="#353957" fill-rule="nonzero"></path>
    </g>
</svg>