<?xml version="1.0" encoding="UTF-8"?>
<svg width="150px" height="33px" viewBox="0 0 150 33" version="1.1" xmlns="http://www.w3.org/2000/svg" xmlns:xlink="http://www.w3.org/1999/xlink">
    <!-- Generator: Sketch 63.1 (92452) - https://sketch.com -->
    <title>logo</title>
    <desc>Created with Sketch.</desc>
    <g id="Admin-Ver-1.0" stroke="none" stroke-width="1" fill="none" fill-rule="evenodd">
        <g id="Sign-In" transform="translate(-136.000000, -35.000000)" fill-rule="nonzero">
            <g id="logo" transform="translate(136.000000, 36.000000)">
                <g id="Group-5" fill="#112A4E">
                    <g id="Group-3">
                        <path d="M15.1239437,31.0420253 C12.3896577,31.0420253 9.89203008,30.3903863 7.63098592,29.0870886 C5.36994175,27.783791 3.5887389,26.0065935 2.28732394,23.755443 C0.985908986,21.5042925 0.335211268,19.0096339 0.335211268,16.2713924 C0.335211268,13.5331509 0.985908986,11.0384923 2.28732394,8.78734177 C3.5887389,6.53619128 5.36994175,4.75899386 7.63098592,3.4556962 C9.89203008,2.15239855 12.3896577,1.50075949 15.1239437,1.50075949 C19.3831199,1.50075949 22.9060894,3.04099726 25.6929577,6.12151899 L21.9464789,9.75493671 C20.1323853,7.62226782 17.871375,6.55594937 15.1633803,6.55594937 C13.4018691,6.55594937 11.7981293,6.95746434 10.3521127,7.76050633 C8.90609606,8.56354832 7.76901823,9.70227111 6.94084507,11.1767089 C6.11267192,12.6511466 5.69859155,14.3493575 5.69859155,16.2713924 C5.69859155,18.1934273 6.11267192,19.8916382 6.94084507,21.3660759 C7.76901823,22.8405137 8.90609606,23.9792365 10.3521127,24.7822785 C11.7981293,25.5853205 13.4018691,25.9868354 15.1633803,25.9868354 C18.1342872,25.9868354 20.6187694,24.7493795 22.6169014,22.2744304 L26.4028169,25.8683544 C25.0093827,27.5534261 23.3596339,28.8369576 21.4535211,29.7189873 C19.5474083,30.6010171 17.4375703,31.0420253 15.1239437,31.0420253 Z" id="Co"></path>
                        <path d="M40.2450704,9.6364557 C42.2957849,9.6364557 44.1361421,10.1037928 45.7661972,11.038481 C47.3962523,11.9731692 48.6647842,13.2567007 49.571831,14.8891139 C50.4788778,16.5215271 50.9323944,18.3382178 50.9323944,20.3392405 C50.9323944,22.3665924 50.4788778,24.1898653 49.571831,25.8091139 C48.6647842,27.4283625 47.3962523,28.7053118 45.7661972,29.64 C44.1361421,30.5746882 42.2957849,31.0420253 40.2450704,31.0420253 C38.1680647,31.0420253 36.3145621,30.5746882 34.684507,29.64 C33.0544519,28.7053118 31.78592,27.4283625 30.8788732,25.8091139 C29.9718265,24.1898653 29.5183099,22.3665924 29.5183099,20.3392405 C29.5183099,18.3382178 29.9718265,16.5215271 30.8788732,14.8891139 C31.78592,13.2567007 33.0544519,11.9731692 34.684507,11.038481 C36.3145621,10.1037928 38.1680647,9.6364557 40.2450704,9.6364557 Z M40.2450704,14.4546835 C39.2460044,14.4546835 38.3258258,14.6916432 37.484507,15.1655696 C36.6431883,15.6394937 35.9661997,16.3240462 35.4535211,17.2192405 C34.9408425,18.1144349 34.684507,19.1544245 34.684507,20.3392405 C34.684507,21.5240566 34.9408425,22.5706284 35.4535211,23.4789873 C35.9661997,24.3873463 36.6431883,25.0784786 37.484507,25.5524051 C38.3258258,26.0263315 39.2460044,26.2632911 40.2450704,26.2632911 C41.2441365,26.2632911 42.164315,26.0263315 43.0056338,25.5524051 C43.8469526,25.0784786 44.5173684,24.3939285 45.0169014,23.4987342 C45.5164344,22.6035398 45.7661972,21.5503858 45.7661972,20.3392405 C45.7661972,19.1544245 45.5164344,18.1144349 45.0169014,17.2192405 C44.5173684,16.3240462 43.8469526,15.6394937 43.0056338,15.1655696 C42.164315,14.6916432 41.2441365,14.4546835 40.2450704,14.4546835 Z" id="Combined-Shape"></path>
                        <polygon id="+" stroke="#112A4E" points="55.7286761 3.75347848 53.1447887 3.75347848 53.1447887 6.3411038 52.1509859 6.3411038 52.1509859 3.75347848 49.5670986 3.75347848 49.5670986 2.75823797 52.1509859 2.75823797 52.1509859 0.170612658 53.1447887 0.170612658 53.1447887 2.75823797 55.7286761 2.75823797"></polygon>
                    </g>
                </g>
                <path d="M68.8,10.4 L71.2192,10.4 L71.2192,19.328 L81.8752,19.328 L81.8752,10.4 L84.2944,10.4 L84.2944,31.0208 L81.8752,31.0208 L81.8752,21.632 L71.2192,21.632 L71.2192,31.0208 L68.8,31.0208 L68.8,10.4 Z M94.9504,31.4816 C93.548793,31.4816 92.2912056,31.1456034 91.1776,30.4736 C90.0639944,29.8015966 89.1952031,28.8752059 88.5712,27.6944 C87.9471969,26.5135941 87.6352,25.1840074 87.6352,23.7056 C87.6352,22.2847929 87.9279971,20.979206 88.5136,19.7888 C89.0992029,18.598394 89.9295946,17.6480036 91.0048,16.9376 C92.0800054,16.2271964 93.3279929,15.872 94.7488,15.872 C96.1888072,15.872 97.4367947,16.1935968 98.4928,16.8368 C99.5488053,17.4800032 100.359997,18.3679943 100.9264,19.5008 C101.492803,20.6336057 101.776,21.9295927 101.776,23.3888 C101.776,23.6768014 101.7472,23.9263989 101.6896,24.1376 L90.0832,24.1376 C90.1408003,25.2512056 90.4095976,26.1919962 90.8896,26.96 C91.3696024,27.7280038 91.9791963,28.3039981 92.7184,28.688 C93.4576037,29.072 94.230396,29.264 95.0368,29.264 C96.9184094,29.264 98.3679949,28.3808088 99.3856,26.6144 L101.4592,27.6224 C100.825597,28.812806 99.9664054,29.7535965 98.8816,30.4448 C97.7967946,31.1360035 96.4864077,31.4816 94.9504,31.4816 Z M99.184,22.1216 C99.1455998,21.5071969 98.9728015,20.8928031 98.6656,20.2784 C98.3583985,19.6639969 97.8736033,19.1456021 97.2112,18.7232 C96.5487967,18.3007979 95.718405,18.0896 94.72,18.0896 C93.5679942,18.0896 92.593604,18.4591963 91.7968,19.1984 C90.999996,19.9376037 90.4768012,20.911994 90.2272,22.1216 L99.184,22.1216 Z M109.3216,31.4816 C108.246395,31.4816 107.286404,31.2704021 106.4416,30.848 C105.596796,30.4255979 104.944002,29.8448037 104.4832,29.1056 C104.022398,28.3663963 103.792,27.5264047 103.792,26.5856 C103.792,25.0303922 104.377594,23.8160044 105.5488,22.9424 C106.720006,22.0687956 108.198391,21.632 109.984,21.632 C110.867204,21.632 111.687996,21.727999 112.4464,21.92 C113.204804,22.112001 113.785598,22.3327988 114.1888,22.5824 L114.1888,21.6896 C114.1888,20.5951945 113.804804,19.7168033 113.0368,19.0544 C112.268796,18.3919967 111.299206,18.0608 110.128,18.0608 C109.302396,18.0608 108.544003,18.2383982 107.8528,18.5936 C107.161597,18.9488018 106.614402,19.4431968 106.2112,20.0768 L104.368,18.6944 C104.944003,17.8111956 105.735995,17.1200025 106.744,16.6208 C107.752005,16.1215975 108.870394,15.872 110.0992,15.872 C112.09601,15.872 113.665594,16.3951948 114.808,17.4416 C115.950406,18.4880052 116.5216,19.913591 116.5216,21.7184 L116.5216,31.0208 L114.1888,31.0208 L114.1888,28.9184 L114.0736,28.9184 C113.651198,29.6288036 113.017604,30.2335975 112.1728,30.7328 C111.327996,31.2320025 110.377605,31.4816 109.3216,31.4816 Z M109.552,29.3216 C110.377604,29.3216 111.145596,29.1104021 111.856,28.688 C112.566404,28.2655979 113.132798,27.6992036 113.5552,26.9888 C113.977602,26.2783964 114.1888,25.5008042 114.1888,24.656 C113.727998,24.3487985 113.161603,24.099201 112.4896,23.9072 C111.817597,23.715199 111.107204,23.6192 110.3584,23.6192 C109.014393,23.6192 108.001603,23.8975972 107.32,24.4544 C106.638397,25.0112028 106.2976,25.7311956 106.2976,26.6144 C106.2976,27.420804 106.604797,28.0735975 107.2192,28.5728 C107.833603,29.0720025 108.611195,29.3216 109.552,29.3216 Z M119.92,10.4 L122.368,10.4 L122.368,31.0208 L119.92,31.0208 L119.92,10.4 Z M131.6416,31.2512 C131.046397,31.2512 130.494403,31.155201 129.9856,30.9632 C129.476797,30.771199 129.049602,30.5120016 128.704,30.1856 C128.319998,29.8207982 128.032001,29.3984024 127.84,28.9184 C127.647999,28.4383976 127.552,27.8528035 127.552,27.1616 L127.552,18.5504 L124.9888,18.5504 L124.9888,16.3328 L127.552,16.3328 L127.552,12.1856 L130,12.1856 L130,16.3328 L133.5712,16.3328 L133.5712,18.5504 L130,18.5504 L130,26.5568 C130,27.363204 130.153598,27.9583981 130.4608,28.3424 C130.825602,28.7648021 131.353597,28.976 132.0448,28.976 C132.601603,28.976 133.139197,28.8128016 133.6576,28.4864 L133.6576,30.8768 C133.369599,31.0112007 133.076801,31.1071997 132.7792,31.1648 C132.481599,31.2224003 132.102402,31.2512 131.6416,31.2512 Z M136.5376,10.4 L138.9856,10.4 L138.9856,16.4768 L138.8704,18.4928 L138.9856,18.4928 C139.388802,17.7439963 140.027196,17.1200025 140.9008,16.6208 C141.774404,16.1215975 142.729595,15.872 143.7664,15.872 C145.552009,15.872 146.915195,16.3951948 147.856,17.4416 C148.796805,18.4880052 149.2672,19.8751914 149.2672,21.6032 L149.2672,31.0208 L146.8192,31.0208 L146.8192,21.9776 C146.8192,20.6527934 146.483203,19.6736032 145.8112,19.04 C145.139197,18.4063968 144.265605,18.0896 143.1904,18.0896 C142.422396,18.0896 141.716803,18.3199977 141.0736,18.7808 C140.430397,19.2416023 139.921602,19.8367964 139.5472,20.5664 C139.172798,21.2960036 138.9856,22.0543961 138.9856,22.8416 L138.9856,31.0208 L136.5376,31.0208 L136.5376,10.4 Z" id="Health" fill="#3F9A21"></path>
            </g>
        </g>
    </g>
</svg>