<?xml version="1.0" encoding="UTF-8"?>
<svg width="436px" height="258px" viewBox="0 0 436 258" version="1.1" xmlns="http://www.w3.org/2000/svg" xmlns:xlink="http://www.w3.org/1999/xlink">
    <!-- Generator: Sketch 64 (93537) - https://sketch.com -->
    <title>error</title>
    <desc>Created with Sketch.</desc>
    <defs>
        <linearGradient x1="50%" y1="0%" x2="50%" y2="100%" id="linearGradient-1">
            <stop stop-color="#FBFBFD" offset="0%"></stop>
            <stop stop-color="#DFDFDF" offset="100%"></stop>
        </linearGradient>
    </defs>
    <g id="Admin-Ver-1.0" stroke="none" stroke-width="1" fill="none" fill-rule="evenodd">
        <g id="error-page" transform="translate(-502.000000, -335.000000)">
            <g id="error" transform="translate(502.000000, 335.000000)">
                <rect id="Rectangle" fill="#D8D8D8" x="28" y="85" width="80" height="60" rx="5"></rect>
                <text id="search" font-family="FontAwesome5Free-Solid, Font Awesome 5 Free" font-size="32" font-weight="700" fill="#FFFFFF">
                    <tspan x="50" y="133">search</tspan>
                </text>
                <rect id="Rectangle-Copy-2" fill="#F5F7FE" x="319" y="0" width="80" height="70" rx="5"></rect>
                <text id="?" font-family="GoogleSans-Bold, Google Sans" font-size="50" font-weight="bold" fill="#68B983">
                    <tspan x="346.225" y="53">?</tspan>
                </text>
                <g id="Group-56" transform="translate(0.000000, 30.000000)">
                    <polygon id="Fill-7" fill="#3F3F3F" points="1.9675 227.978278 435.9675 227.978278 435.9675 214.698902 1.9675 214.698902"></polygon>
                    <g id="Group-32" transform="translate(30.000000, 180.000000)" fill="#84B595">
                        <path d="M37.6572484,3.97903932e-13 L36.377627,7.6416641 C38.4967014,7.78571243 41.6553571,8.3062085 44.174965,10.0123602 C46.714005,11.7317038 48,14.1851388 48,17.3098749 C48,20.1363576 46.7488379,22.4217365 44.2860539,24.1078382 C40.7638872,26.5164428 35.6998037,26.92467 33.1439678,26.9640941 L31.7996634,35 L5.57892136,35 L3.55271368e-15,3.97903932e-13 L37.6572484,3.97903932e-13 Z M35.7427886,11.4344179 L33.7876736,23.1207633 C35.7314953,23.0315756 38.8027609,22.6638657 40.7971098,21.2998232 C42.1791308,20.3561234 42.8531956,19.0513798 42.8531956,17.3098749 C42.8531956,15.3153625 42.1395907,13.8120911 40.7265025,12.8462299 C39.1879369,11.7963366 37.0722325,11.5075472 35.7427886,11.4344179 Z" id="Combined-Shape"></path>
                    </g>
                    <path d="M327.27843,185.26718 L110.99223,185.26718 C101.88053,185.26718 94.49263,177.876308 94.49263,168.758037 L94.49263,160.066413 L343.77803,160.066413 L343.77803,168.758037 C343.77803,177.876308 336.39143,185.26718 327.27843,185.26718" id="Fill-31" fill="#DBDEE1"></path>
                    <polygon id="Fill-32" fill="#BABEC1" points="194.0504 207.318436 245.2106 207.318436 245.2106 185.26809 194.0504 185.26809"></polygon>
                    <path d="M343.77803,160.474459 L94.49263,160.474459 L94.49263,26.2641805 C94.49263,19.8852932 99.66013,14.7135038 106.03533,14.7135038 L332.23533,14.7135038 C338.61053,14.7135038 343.77803,19.8852932 343.77803,26.2641805 L343.77803,160.474459 Z" id="Fill-33" fill="#3F3F3F"></path>
                    <polygon id="Fill-34" fill="url(#linearGradient-1)" points="104.6195 151.474556 335.2083 151.474556 335.2083 25.2014662 104.6195 25.2014662"></polygon>
                    <text id="Welcome-to-your-new-wireframe-kit" font-family="Muli-Bold, Muli" font-size="27" font-weight="bold" line-spacing="30" fill="#3F3F3F">
                        <tspan x="117" y="72">Oops!</tspan>
                        <tspan x="117" y="102">Something </tspan>
                        <tspan x="117" y="132">Went Wrong</tspan>
                    </text>
                    <path d="M224.76615,171.537874 C224.76615,174.649272 222.24545,177.17143 219.13585,177.17143 C216.02625,177.17143 213.50425,174.649272 213.50425,171.537874 C213.50425,168.426475 216.02625,165.904317 219.13585,165.904317 C222.24545,165.904317 224.76615,168.426475 224.76615,171.537874" id="Fill-35" fill="#FFFFFF"></path>
                    <path d="M267.09675,214.699423 L171.23345,214.699423 C171.23345,210.622866 174.53675,207.317656 178.61095,207.317656 L259.71925,207.317656 C263.79345,207.317656 267.09675,210.622866 267.09675,214.699423" id="Fill-36" fill="#DBDEE1"></path>
                    <polygon id="Fill-37" fill="#F0F3EF" points="116.2012 196.291962 151.1426 196.291962 151.1426 175.672444 116.2012 175.672444"></polygon>
                    <polygon id="Fill-38" fill="#68B983" points="126.6259 179.529173 139.3776 179.529173 139.3776 171.818316 126.6259 171.818316"></polygon>
                    <g id="Group" transform="translate(318.000000, 168.000000)">
                        <path d="M13.3411623,-8.52651283e-13 C8.58178829,-8.52651283e-13 4.72250049,3.86085205 4.72250049,8.62215509 C4.72250049,13.3834581 8.58178829,17.2443102 13.3411623,17.2443102 L97.4230907,17.2443102 L97.4230907,13.1700025 L14.7643135,13.1700025 C12.2536013,13.1700025 10.2183086,11.1338849 10.2183086,8.62215509 C10.2183086,6.11042526 12.2536013,4.07430763 14.7643135,4.07430763 L97.4230907,4.07430763 L97.4230907,-8.52651283e-13 L13.3411623,-8.52651283e-13 Z" id="Fill-51" fill="#A0BDAA"></path>
                        <path d="M10.2184122,8.62205147 C10.2184122,11.1337813 12.2537049,13.1698989 14.7644171,13.1698989 L93.5473341,13.1698989 L93.5473341,4.07420401 L14.7644171,4.07420401 C12.2537049,4.07420401 10.2184122,6.11032164 10.2184122,8.62205147" id="Fill-52" fill="#F0F3EF"></path>
                        <path d="M14.582639,17.3177762 C6.52847317,17.3177762 -4.97379915e-14,23.8488955 -4.97379915e-14,31.9063258 C-4.97379915e-14,39.9637562 6.52847317,46.4948755 14.582639,46.4948755 L88.9365935,46.4948755 L88.9365935,41.1180743 L15.5034407,41.1180743 C10.4405854,41.1180743 6.33581951,37.0126809 6.33581951,31.9477735 C6.33581951,26.88183 10.4405854,22.7764366 15.5034407,22.7764366 L88.9365935,22.7764366 L88.9365935,17.3177762 L14.582639,17.3177762 Z" id="Fill-53" fill="#DBDEE1"></path>
                        <path d="M6.33561236,31.9474627 L6.33561236,31.9474627 C6.33561236,37.01237 10.4403782,41.1187996 15.5032335,41.1187996 L85.2324644,41.1187996 L85.2324644,22.7761257 L15.5032335,22.7761257 C10.4403782,22.7761257 6.33561236,26.8825553 6.33561236,31.9474627" id="Fill-54" fill="#F0F3EF"></path>
                        <polygon id="Fill-55" fill="#68B983" points="19.5929807 28.8837533 27.8698376 28.8837533 27.8698376 38.0281492 23.7308912 35.5371432 19.5929807 38.0281492"></polygon>
                    </g>
                    <rect id="Rectangle" fill="#F2C3D8" x="0" y="73" width="21" height="4" rx="2"></rect>
                    <rect id="Rectangle-Copy-5" fill="#BEDAFF" x="8" y="57" width="11" height="4" rx="2"></rect>
                    <rect id="Rectangle-Copy-4" fill="#F2C3D8" x="161" y="0" width="11" height="4" rx="2"></rect>
                    <circle id="Oval" stroke="#68B983" stroke-width="2" cx="373.5" cy="114.5" r="5.5"></circle>
                </g>
            </g>
        </g>
    </g>
</svg>